<svg width="97" height="76" viewBox="0 0 97 76" fill="none" xmlns="http://www.w3.org/2000/svg">
<path d="M56.3623 2.96078C53.4447 4.60341 50.4703 6.24603 49.7315 6.64713C40.6946 11.575 28.797 18.2601 28.4749 18.6421C28.077 19.0623 28.0391 19.2915 28.0391 21.3734V23.6654L16.7857 23.7036C5.68374 23.7609 5.51324 23.7609 4.98277 24.162C3.99762 24.9069 3.94078 26.3203 4.83121 27.2181L5.28589 27.6765H16.672H28.0391V31.019V34.3615H22.545C18.2066 34.3615 16.8993 34.4188 16.3878 34.6289C15.7247 34.9154 15.1564 35.7559 15.1564 36.4626C15.1564 37.0165 15.6679 37.9333 16.0847 38.1816C16.312 38.2962 18.6423 38.3726 22.2419 38.3726H28.0391V43.2431V48.1137H20.139C15.3648 48.1137 11.9357 48.1901 11.5378 48.3047C10.6474 48.553 10.2306 49.2024 10.2306 50.2911C10.2306 50.9978 10.3253 51.2079 10.8179 51.6281L11.4052 52.1247H19.7222H28.0391V54.4932C28.0391 56.4605 28.096 56.9189 28.3802 57.2627C28.5507 57.4728 36.1667 61.7894 45.2793 66.8319C58.2189 73.9945 62.008 76 62.5195 76C63.031 76 66.7822 74.0136 79.7597 66.8319C88.8724 61.7894 96.4883 57.4728 96.6778 57.2627C96.962 56.8998 96.9999 56.3268 96.9999 51.7236V46.6048L96.5452 46.07C96.1473 45.6116 95.9389 45.5352 95.1053 45.5352C94.2717 45.5352 94.0634 45.6116 93.6655 46.07C93.2108 46.6048 93.2108 46.643 93.2108 50.6731V54.7415L79.8165 62.1714C72.4279 66.2589 65.9486 69.8306 65.4181 70.1362L64.414 70.6901V54.9516V39.2321L68.923 36.7491L73.413 34.2469L73.5077 38.5636C73.5646 41.4095 73.6783 42.9948 73.8298 43.2622C74.1329 43.797 75.0802 44.179 75.7622 44.0453C76.0654 43.988 77.9978 42.9948 80.0628 41.8488C83.2267 40.1107 83.8897 39.6523 84.155 39.1175C84.4581 38.5445 84.496 37.8378 84.496 33.2919V28.1158L88.8155 25.7282L93.1161 23.3407L93.2108 28.2877L93.3055 33.2537L93.836 33.7121C94.6128 34.3806 95.7116 34.3424 96.4504 33.6166L96.9999 33.0627V26.072C96.9999 19.1196 96.9999 19.1005 96.5831 18.623C96.3368 18.3747 88.7397 14.0771 79.7028 9.07286C65.1339 1.01257 63.1826 -0.0188446 62.4627 0.00025177C61.7996 0.00025177 60.7765 0.515961 56.3623 2.96078ZM76.6716 12.0334C84.4581 16.35 90.8616 19.9027 90.8805 19.9218C90.9374 19.9791 82.6962 24.4867 82.5067 24.4867C82.2226 24.4867 54.1646 8.92006 54.2594 8.80546C54.3162 8.76726 56.1728 7.71674 58.3894 6.47523C60.606 5.23372 62.4437 4.22141 62.4627 4.20231C62.4627 4.1832 68.8662 7.71674 76.6716 12.0334ZM64.2625 19.1196C74.2277 24.6395 78.1683 26.9125 77.9978 27.0462C77.8841 27.1608 77.24 27.5237 76.6148 27.8484L75.4402 28.4787L61.307 20.6667C53.5395 16.3882 47.1928 12.8356 47.1928 12.7783C47.1738 12.5873 49.7504 11.2694 50.0156 11.3267C50.1672 11.3649 56.5896 14.8793 64.2625 19.1196ZM56.5517 22.6531C62.8037 26.1102 68.6767 29.3573 69.5861 29.8539C70.4955 30.3696 71.2343 30.7898 71.1964 30.828C71.1585 30.8662 69.2072 31.9549 66.839 33.2728L62.5195 35.6604L48.7463 28.0203C41.1493 23.8182 34.7647 20.2847 34.5374 20.151C34.1395 19.96 34.4616 19.7308 38.4969 17.5151L42.8922 15.0894L44.0479 15.7197C44.6731 16.0826 50.2998 19.196 56.5517 22.6531ZM47.5149 31.974L60.625 39.2321V54.9516V70.6901L59.6398 70.1362C59.0904 69.8115 52.6111 66.2398 45.2414 62.1523L31.8282 54.7415V39.022V23.3025L33.1165 24.0092C33.8364 24.3912 40.2967 27.9821 47.5149 31.974ZM80.5175 33.6739V36.9974L79.1534 37.7232C78.3956 38.1434 77.7136 38.4872 77.6378 38.5254C77.5431 38.5636 77.4863 37.112 77.4863 35.2783V31.974L78.964 31.1718C79.7597 30.7325 80.4417 30.3696 80.4796 30.3505C80.4985 30.3505 80.5175 31.8403 80.5175 33.6739Z" fill="#FCE301"/>
<path d="M96.9999 46.6048L96.5452 46.07C96.1473 45.6116 95.9389 45.5352 95.1053 45.5352C94.2717 45.5352 94.0634 45.6116 93.6655 46.07C93.2108 46.6048 93.2108 46.643 93.2108 50.6731V28.2877L93.3055 33.2537L93.836 33.7121C94.6128 34.3806 95.7116 34.3424 96.4504 33.6166L96.9999 33.0627V46.6048Z" fill="#FCE301"/>
<path d="M8.77168 34.6485C8.14648 34.9159 7.57812 35.7754 7.57812 36.463C7.57812 37.0169 8.08965 37.9337 8.50644 38.182C8.71484 38.2775 9.22636 38.373 9.6621 38.373C10.2873 38.373 10.5715 38.2584 11.0072 37.8191C12.5228 36.2911 10.742 33.7699 8.77168 34.6485Z" fill="#FCE301"/>
<path d="M1.23144 48.3241C0.416796 48.5533 0 49.2027 0 50.2532C0 51.0172 0.075781 51.2082 0.587303 51.6284C1.13672 52.1059 1.28828 52.125 3.23964 52.125C4.3953 52.125 5.49412 52.0295 5.70252 51.934C6.11932 51.6857 6.63084 50.7689 6.63084 50.215C6.63084 49.5083 6.06248 48.6679 5.3994 48.3814C4.67948 48.0758 2.14081 48.0376 1.23144 48.3241Z" fill="#FCE301"/>
</svg>
