<svg width="76" height="76" viewBox="0 0 76 76" fill="none" xmlns="http://www.w3.org/2000/svg">
<path d="M4.37888 2.65705C4.05232 2.80549 3.57732 3.16174 3.31013 3.42893C2.34529 4.4383 2.37498 4.21565 2.37498 13.0922C2.37498 22.0875 2.34529 21.7906 3.42888 22.8149C4.43826 23.7797 4.2156 23.75 13.0922 23.75C22.0875 23.75 21.7906 23.7797 22.8148 22.6961C23.7648 21.6867 23.75 21.9094 23.75 13.0625C23.75 4.21565 23.7648 4.4383 22.8148 3.42893C21.7906 2.34534 22.0875 2.37502 13.0625 2.37502C5.49216 2.37502 4.9281 2.40471 4.37888 2.65705ZM20.5437 4.95783C20.8851 5.09143 21.0929 5.31409 21.2117 5.64065C21.4492 6.32346 21.4492 19.8016 21.2117 20.4844C20.9 21.3602 20.8109 21.375 13.0922 21.375C8.28279 21.375 5.98201 21.3156 5.6406 21.2117C4.76482 20.9 4.74998 20.811 4.74998 13.0922C4.74998 8.28284 4.80935 5.98205 4.91326 5.64065C5.22498 4.76487 5.26951 4.76487 13.0328 4.75002C18.7031 4.75002 20.1429 4.79455 20.5437 4.95783Z" fill="#FCE301"/>
<path d="M7.125 8.3125V9.5H8.3125H9.5V8.3125V7.125H8.3125H7.125V8.3125Z" fill="#FCE301"/>
<path d="M11.875 8.3125V9.5H15.4375H19V8.3125V7.125H15.4375H11.875V8.3125Z" fill="#FCE301"/>
<path d="M7.125 13.0625V14.25H13.0625H19V13.0625V11.875H13.0625H7.125V13.0625Z" fill="#FCE301"/>
<path d="M7.125 17.8125V19H13.0625H19V17.8125V16.625H13.0625H7.125V17.8125Z" fill="#FCE301"/>
<path d="M60.1469 2.67188C56.5102 3.63672 53.482 6.67969 52.5469 10.3313C52.3391 11.118 52.25 11.9789 52.25 13.0625C52.25 16.15 53.2148 18.4805 55.3672 20.6328C57.5195 22.7852 59.85 23.75 62.9375 23.75C66.025 23.75 68.3555 22.7852 70.5078 20.6328C72.6602 18.4805 73.625 16.15 73.625 13.0625C73.625 11.9789 73.5359 11.118 73.3281 10.3313C72.393 6.65 69.35 3.60703 65.6687 2.67188C64.1398 2.2711 61.6609 2.28594 60.1469 2.67188ZM65.0008 5.1211C67.5539 5.78906 69.7805 7.8375 70.6859 10.3164C71.0719 11.4297 71.2203 13.6414 70.9531 14.8289C70.3742 17.4711 68.2516 19.8758 65.6836 20.8109C64.5703 21.1969 62.3586 21.3453 61.1711 21.0781C58.5289 20.4992 56.1242 18.3766 55.1891 15.8086C54.7883 14.6953 54.6547 12.4688 54.9219 11.2961C55.575 8.35703 57.9055 5.92266 60.8594 5.10625C61.7797 4.85391 64.0359 4.85391 65.0008 5.1211Z" fill="#FCE301"/>
<path d="M64.2438 11.0883L61.75 13.582L60.4141 12.2461L59.0781 10.9102L58.143 11.8453L57.2227 12.7656L59.1672 14.6953C61.0523 16.5805 61.1266 16.625 61.75 16.625C62.4031 16.625 62.418 16.6102 65.5203 13.5078L68.6523 10.4055L67.7617 9.5C67.2719 9.01016 66.8414 8.60938 66.7969 8.60938C66.7523 8.60938 65.6094 9.72266 64.2438 11.0883Z" fill="#FCE301"/>
<path d="M32.0625 7.40704C29.925 8.08984 28.0695 9.58907 27.1195 11.4C26.3328 12.9141 26.125 13.7898 26.125 15.6305V17.2336L26.9414 18.1094L27.7727 18.9703L27.2383 19.2672C26.3477 19.8016 26.125 20.3508 26.125 21.9688C26.125 23.1117 26.1844 23.468 26.4219 23.8688C26.8969 24.6406 27.5203 24.9375 28.6781 24.9375C29.6578 24.9375 29.6875 24.9523 29.7766 25.3383C30.2516 27.5352 31.6914 29.6875 33.3836 30.7711C33.8586 31.068 33.8734 31.0977 33.7844 31.825C33.6062 33.1313 33.5469 33.25 33.1164 33.25C32.9086 33.25 31.9289 33.5172 30.9492 33.8289C29.9695 34.1406 28.6781 34.5563 28.0844 34.7344C27.4906 34.9273 26.6297 35.2984 26.1695 35.5656C25.7242 35.8477 25.2937 36.0703 25.2344 36.0703C25.175 36.0703 24.2992 35.0461 23.275 33.7992C21.7906 31.9883 21.3898 31.4094 21.3156 30.9195C21.0187 29.2273 19.6531 27.4313 18.0352 26.6297L17.1445 26.1992L10.0641 26.1547L2.98359 26.1102L2.65703 26.4367C2.375 26.7188 2.34531 26.882 2.40469 27.9062C2.52344 29.9547 3.78516 31.7953 5.71484 32.7453C6.59062 33.1758 6.65 33.1758 9.45547 33.2203L12.3203 33.2797L16.2539 39.4547L20.1875 45.6445V46.5648V47.5H12.7656C5.53672 47.5 5.32891 47.5148 5.04688 47.7969C4.75 48.0938 4.75 48.2867 4.75 57.2969V66.5H3.85938C2.375 66.5 2.375 66.5148 2.375 70.0625C2.375 72.8383 2.38984 73.0461 2.67188 73.3281C2.96875 73.625 3.16172 73.625 38 73.625C72.8383 73.625 73.0312 73.625 73.3281 73.3281C73.6102 73.0461 73.625 72.8383 73.625 70.0625C73.625 66.5148 73.625 66.5 72.1406 66.5H71.25V57.2969C71.25 48.2867 71.25 48.0938 70.9531 47.7969C70.6711 47.5148 70.4633 47.5 63.2344 47.5H55.8125V46.5203V45.5406L58.0984 41.9484C59.3602 39.9742 61.1266 37.2281 62.0172 35.8477L63.65 33.3242L66.5297 33.25C69.3352 33.1758 69.4094 33.1609 70.2852 32.7453C72.2148 31.7953 73.4766 29.9547 73.5953 27.9062C73.6547 26.882 73.625 26.7188 73.343 26.4367L73.0164 26.1102L65.9359 26.1547L58.8555 26.1992L57.9648 26.6297C56.3469 27.4313 54.9813 29.2273 54.6844 30.9195C54.6102 31.4094 54.2094 31.9883 52.725 33.7992C51.7008 35.0461 50.825 36.0703 50.7656 36.0703C50.7062 36.0703 50.2758 35.8477 49.8305 35.5656C49.3703 35.2984 48.5094 34.9273 47.9156 34.7344C47.3219 34.5563 46.0305 34.1406 45.0508 33.8289C44.0711 33.5172 43.0914 33.25 42.8836 33.25C42.4531 33.25 42.3937 33.1313 42.2156 31.825C42.1266 31.0977 42.1414 31.068 42.6164 30.7711C44.3086 29.6875 45.7484 27.5352 46.2234 25.3383C46.3125 24.9523 46.3422 24.9375 47.3219 24.9375C48.4797 24.9375 49.1031 24.6406 49.5781 23.8688C49.8156 23.468 49.875 23.1117 49.875 21.9688C49.875 20.3508 49.6523 19.8016 48.7617 19.2672L48.2273 18.9703L49.0586 18.1094L49.875 17.2336V15.6305C49.875 13.7898 49.6672 12.9141 48.8953 11.4148C47.9453 9.6039 46.2383 8.19375 44.1898 7.49609C43.0766 7.125 43.032 7.125 37.9703 7.13985C33.5172 7.13985 32.775 7.16953 32.0625 7.40704ZM42.2305 9.64844C45.0211 10.0641 46.9656 12.0234 47.3516 14.8438L47.5148 15.9422L46.9062 16.5359L46.3125 17.1445V16.5805C46.3125 16.2391 46.2086 15.9273 46.0453 15.7641C45.7484 15.4672 36.4562 13.0625 35.625 13.0625C35.0609 13.0625 29.9102 15.6156 29.7766 15.957C29.732 16.0906 29.6875 16.4172 29.6875 16.6695V17.1445L29.0938 16.5359L28.4852 15.9422L28.6484 14.8438C28.7375 14.2352 28.9602 13.3891 29.168 12.9586C29.9398 11.2664 31.7359 9.93047 33.6211 9.66328C34.8828 9.48516 40.9836 9.47031 42.2305 9.64844ZM39.8555 16.5953L43.8633 17.6047L43.9078 20.3508C43.9523 23.5125 43.7891 25.1156 43.2695 26.2289C42.7945 27.268 41.5031 28.5594 40.4195 29.0641C39.6477 29.4203 39.3805 29.4648 38 29.4648C36.6195 29.4648 36.3523 29.4203 35.5805 29.0641C34.5117 28.5594 33.2055 27.268 32.7305 26.2289C32.2109 25.1156 32.0625 23.8094 32.0625 20.4102V17.4414L33.8883 16.5211C34.8828 16.0164 35.7289 15.6008 35.7734 15.6008C35.818 15.6008 37.6586 16.0461 39.8555 16.5953ZM16.6992 28.8414C17.382 29.1531 18.1836 29.8805 18.4953 30.4742L18.718 30.8898L13.1812 30.8453C8.23828 30.8008 7.58516 30.7711 7.05078 30.5336C6.36797 30.2219 5.56641 29.4945 5.25469 28.9008L5.03203 28.4852L10.5687 28.5297C15.5117 28.5742 16.1648 28.6039 16.6992 28.8414ZM70.7453 28.9008C70.4336 29.4945 69.632 30.2219 68.9492 30.5336C68.4148 30.7711 67.7617 30.8008 62.8187 30.8453L57.282 30.8898L57.5047 30.4742C57.757 29.9992 58.5438 29.2125 59.0484 28.9602C59.7461 28.6039 60.7555 28.5297 65.8023 28.5148L70.968 28.5L70.7453 28.9008ZM39.9445 33.6211L40.1969 35.1055L39.0984 36.2188L38 37.332L36.9016 36.2188L35.8031 35.1055L36.0109 33.7695C36.1445 33.0273 36.2633 32.3445 36.293 32.2406C36.3523 32.107 36.768 32.0625 38.0297 32.0922L39.6922 32.1367L39.9445 33.6211ZM24.6258 39.4992C27.4312 42.9281 29.8211 45.7781 29.925 45.8227C30.0289 45.8672 30.5187 45.5703 30.9789 45.1844C31.4539 44.7836 31.8695 44.457 31.8844 44.4422C31.9141 44.4125 30.8008 43.0172 29.4203 41.325C28.025 39.618 26.9266 38.1781 26.9562 38.1188C27.0898 37.9109 28.8117 37.0945 29.0195 37.1391C29.1383 37.1688 30.3703 38.7867 31.7656 40.7461C33.8438 43.6555 34.2891 44.368 34.2148 44.6797C33.8734 46.4016 32.0625 57.7125 32.0625 58.2172C32.0625 58.8406 32.107 58.8852 34.7047 61.4828C38.2523 65.0305 37.7477 65.0305 41.2953 61.4828C43.893 58.8852 43.9375 58.8406 43.9375 58.2172C43.9375 57.7125 42.1266 46.4016 41.7852 44.6797C41.7109 44.368 42.1562 43.6555 44.2344 40.7461C45.6297 38.7867 46.8617 37.1688 46.9805 37.1391C47.1883 37.0945 48.9102 37.9109 49.0438 38.1188C49.0734 38.1781 47.975 39.618 46.5797 41.325C45.1992 43.0172 44.0859 44.4125 44.1156 44.4422C44.1305 44.457 44.5461 44.7836 45.0211 45.1844C45.4813 45.5703 45.9711 45.8672 46.075 45.8227C46.1789 45.7781 48.5687 42.9281 51.3742 39.4992L56.4805 33.25H58.5289C59.6422 33.25 60.5625 33.2797 60.5625 33.3094C60.5625 33.3539 59.4492 35.1055 58.0836 37.2133C56.718 39.3211 55.1148 41.8445 54.5211 42.8094L53.4375 44.5906V46.0453V47.5H51.9531C49.6375 47.5 49.875 46.4016 49.875 57.2969V66.5H38H26.125V57.2969C26.125 46.4016 26.3625 47.5 24.0469 47.5H22.5625V46.0453V44.6055L19 39.0094C17.0406 35.9219 15.4375 33.3688 15.4375 33.3242C15.4375 33.2797 16.3578 33.25 17.4859 33.25H19.5195L24.6258 39.4992ZM35.1055 38.1484C37.3172 40.3305 37.3617 40.375 38 40.375C38.6383 40.375 38.6828 40.3305 40.8945 38.1484L43.1359 35.9219L43.7 36.1148L44.2492 36.3078L41.9781 39.4844L39.6922 42.6758H38H36.3078L34.0219 39.4844L31.7508 36.293L32.2406 36.1148C32.5078 36.0258 32.7602 35.9367 32.8047 35.9367C32.8344 35.9219 33.8734 36.9164 35.1055 38.1484ZM39.4695 46.1492C39.5586 46.7281 39.6328 47.2625 39.6328 47.3367C39.6328 47.4406 39.0539 47.5 38 47.5C36.9461 47.5 36.3672 47.4406 36.3672 47.3367C36.3672 47.2625 36.4414 46.7281 36.5305 46.1492L36.7086 45.125H38H39.2914L39.4695 46.1492ZM11.875 51.9531C11.875 54.8031 11.6375 54.625 15.4375 54.625C19.2375 54.625 19 54.8031 19 51.9531V49.875H21.375H23.75V58.1875V66.5H15.4375H7.125V58.1875V49.875H9.5H11.875V51.9531ZM16.625 51.0625V52.25H15.4375H14.25V51.0625V49.875H15.4375H16.625V51.0625ZM40.1523 50.35C40.1969 50.6172 40.4937 52.3687 40.8203 54.2539L41.3844 57.668L39.6922 59.375L38 61.082L36.3078 59.375L34.6156 57.668L35.1797 54.2539C35.5062 52.3687 35.8031 50.6172 35.8477 50.35L35.9367 49.875H38H40.0633L40.1523 50.35ZM57 51.9531C57 54.8031 56.7625 54.625 60.5625 54.625C64.3625 54.625 64.125 54.8031 64.125 51.9531V49.875H66.5H68.875V58.1875V66.5H60.5625H52.25V58.1875V49.875H54.625H57V51.9531ZM61.75 51.0625V52.25H60.5625H59.375V51.0625V49.875H60.5625H61.75V51.0625ZM71.25 70.0625V71.25H38H4.75V70.0625V68.875H38H71.25V70.0625Z" fill="#FCE301"/>
</svg>
