<svg width="77" height="76" viewBox="0 0 77 76" fill="none" xmlns="http://www.w3.org/2000/svg">
<path d="M21.6719 0.237499C21.1375 0.59375 5.40313 16.2984 4.88359 16.9813C4.60156 17.3672 4.45312 17.7383 4.45312 18.0945C4.45312 18.5992 5.09141 19.2672 18.9703 33.1313L33.4727 47.6484H34.1406H34.8086L42.5273 39.9297L50.2461 32.2109H51.5227C53.5711 32.2109 55.4859 31.5578 57.3563 30.2219C58.2914 29.5539 60.0133 27.8469 60.4734 27.1195L60.7406 26.7188H67.7766C75.3172 26.7188 75.3914 26.7039 75.7922 25.9617C76.1039 25.3383 76.1039 6.42735 75.7922 5.80391C75.4062 5.07656 75.1688 5.04688 69.9883 5.04688H65.1789L64.7633 5.40313C64.407 5.71484 64.3328 5.89297 64.2734 6.7836L64.1992 7.79297L61.7945 7.8375L59.3898 7.86719L59.0188 8.32734C58.7813 8.59453 58.6328 8.96563 58.6328 9.23281V9.69297L57.7867 9.60391C56.4508 9.45547 55.4414 9.03984 52.6656 7.48125C49.3109 5.5961 44.7391 3.35469 43.3438 2.90937C41.6961 2.375 39.6773 2.18203 38.0594 2.375C36.6938 2.53828 36.1445 2.71641 31.3945 4.43828L28.5742 5.4625L25.9766 2.89453C24.5516 1.48438 23.2305 0.252346 23.0523 0.16328C22.5922 -0.0742188 22.0875 -0.044529 21.6719 0.237499ZM24.0766 5.29922C24.9672 6.175 25.6797 6.94688 25.6797 6.99141C25.6797 7.05078 25.3234 7.24375 24.9078 7.43672C24.225 7.74844 23.8984 7.79297 22.4141 7.79297C20.9297 7.79297 20.6031 7.74844 19.9352 7.43672C19.5047 7.24375 19.1484 7.05078 19.1484 6.99141C19.1484 6.8875 22.2953 3.71094 22.4141 3.71094C22.4438 3.71094 23.2008 4.42344 24.0766 5.29922ZM41.9781 5.5961C42.9875 5.84844 48.4203 8.46094 50.9141 9.90078C54.1055 11.7414 55.3523 12.2461 57.3711 12.543L58.5586 12.7062L58.6031 18.6289L58.6328 24.5516L58.0836 25.3531C57.2375 26.5852 55.768 27.8469 54.3578 28.5445C53.1703 29.1234 53.007 29.168 51.582 29.2125C48.8063 29.3164 46.743 28.5 44.7539 26.4813L43.5664 25.2938L40.4492 24.2398C31.4688 21.2117 31.0383 21.0484 30.3406 20.4398C29.5984 19.7867 29.3164 19.3266 29.168 18.5398C28.9602 17.4117 29.7617 15.9422 30.8305 15.4969C31.8102 15.0812 32.4484 15.2148 39.4398 17.4414C43.1805 18.6289 46.4164 19.5938 46.6539 19.5938C47.3219 19.5938 47.9453 18.8813 47.9453 18.1094C47.9453 17.1445 47.6039 16.9219 44.5906 15.957C43.1359 15.4969 40.7016 14.725 39.1875 14.2352L36.4414 13.3594L33.6508 10.5688L30.8602 7.77813L31.6469 7.51094C32.0773 7.34766 33.4875 6.84297 34.7789 6.36797C36.0703 5.89297 37.5398 5.43281 38.0445 5.35859C39.1578 5.18047 40.7164 5.28437 41.9781 5.5961ZM73.0312 15.8828V23.75H70.1367H67.2422V15.8828V8.01562H70.1367H73.0312V15.8828ZM17.768 9.63359C18.9852 10.3906 20.232 10.7172 22.043 10.8063C23.9875 10.8805 25.457 10.5539 27.0008 9.69297L27.9359 9.17344L29.4797 10.7023C30.9344 12.157 31.0086 12.2609 30.6969 12.3797C28.693 13.1813 28.0102 13.6562 27.2086 14.7992C26.8227 15.3633 26.5555 15.6008 26.2141 15.6602C25.1156 15.8977 23.3195 16.9219 22.3844 17.8719C20.7367 19.5047 19.8906 21.5531 19.8906 23.8687C19.8906 26.1102 20.6031 27.9656 22.0875 29.5539C25.5016 33.2352 30.9938 33.25 34.482 29.5688C35.2539 28.7523 36.3672 26.8375 36.3672 26.318C36.3672 26.0211 36.5453 26.0656 39.0688 26.8969L41.4141 27.6688L41.325 29.0938C41.2063 30.9492 41.5031 32.3297 42.3492 34.0219L43.0023 35.2984L41.3547 36.9461L39.707 38.5789L38.3711 37.9109C35.5063 36.4859 32.493 36.5156 29.7023 38.0148L28.5891 38.6086L21.0484 31.068L13.5227 23.5273L13.9531 22.8148C14.2055 22.4289 14.5766 21.5977 14.7992 20.9594C15.1555 19.9648 15.2 19.5789 15.2148 18.0352C15.2148 16.0016 14.9031 14.7547 14.0273 13.3445L13.5375 12.543L15.2 10.8656C16.1055 9.96016 16.8922 9.20312 16.9516 9.20312C17.0109 9.20312 17.3672 9.3961 17.768 9.63359ZM64.2734 17.293V23.75H62.9375H61.6016V17.293V10.8359H62.9375H64.2734V17.293ZM12.0234 16.15C12.4984 17.6641 12.3352 19.6086 11.6375 20.9594L11.4 21.4195L9.70781 19.7273L8.01563 18.0352L9.67813 16.3578C11.5781 14.4578 11.5039 14.4727 12.0234 16.15ZM26.318 19.4008C26.5406 20.7961 27.8469 22.518 29.3164 23.3938C29.7172 23.6313 30.8602 24.1063 31.8398 24.4328C33.8438 25.1305 33.7992 25.0562 33.1313 26.3922C32.6266 27.4312 31.4094 28.5297 30.3109 28.9602C29.1383 29.4203 27.4164 29.4203 26.2438 28.9602C25.1305 28.5297 24.0766 27.55 23.4383 26.3922C22.9484 25.5016 22.9336 25.3977 22.9336 23.8984C22.9336 22.043 23.1859 21.3602 24.2844 20.1727C24.893 19.5344 25.8133 18.8813 26.1398 18.8516C26.1992 18.8516 26.2734 19.1039 26.318 19.4008ZM45.1102 30.5781C45.4961 30.8305 46.0453 31.0977 46.2977 31.1867C46.55 31.2758 46.7578 31.3945 46.7578 31.4539C46.7578 31.5133 46.4016 31.8992 45.9711 32.3297L45.1844 33.1016L44.9172 32.5523C44.4867 31.6766 44.1008 30.1328 44.3086 30.1328C44.3531 30.1328 44.7094 30.3406 45.1102 30.5781ZM36.3375 40.2266C36.7977 40.3898 37.2281 40.5828 37.3172 40.6719C37.4211 40.7758 36.9461 41.3547 35.8031 42.4977L34.1406 44.1602L32.5078 42.5273C31.6172 41.6367 30.875 40.85 30.875 40.7906C30.875 40.6273 31.8695 40.2117 32.8047 39.9891C33.8141 39.7367 35.2391 39.8406 36.3375 40.2266Z" fill="#FCE301"/>
<path d="M50.8398 18.7619C50.3648 19.2369 50.2461 19.7862 50.4688 20.3502C50.8844 21.3299 52.0867 21.5526 52.8586 20.7955C53.4227 20.2166 53.4375 19.5041 52.9031 18.8659C52.5766 18.4799 52.4133 18.4057 51.8641 18.4057C51.3594 18.4057 51.107 18.4948 50.8398 18.7619Z" fill="#FCE301"/>
<path d="M22.2953 46.2979C20.0539 46.9214 17.7234 48.4651 16.1055 50.4393L15.2742 51.4339L8.075 51.5081L0.860938 51.5823L0.430469 52.0722L0 52.562L0.0296875 62.5073L0.0742188 72.4675L0.489844 72.8237L0.905469 73.18H5.92266H10.9398L11.3406 72.794C11.682 72.4526 11.7266 72.2745 11.7266 71.4581V70.5081H13.9531C16.818 70.5081 17.3672 70.2706 17.3672 69.0237V68.5487L18.1539 68.6526C19.5789 68.8456 20.6922 69.3057 23.082 70.6714C26.1398 72.4081 31.4094 74.9909 32.6711 75.3768C35.0758 76.119 37.6883 76.1636 39.8703 75.4956C40.5086 75.3026 44.4125 73.937 48.5391 72.4526C52.6656 70.9682 57.9055 69.0831 60.1914 68.2667C64.793 66.619 65.4609 66.3073 66.5891 65.2682C68.8453 63.2198 69.3203 60.5182 67.8953 57.9057C66.7969 55.8573 64.3477 54.7143 61.8539 55.0706C61.3492 55.1448 58.3953 55.9167 55.3078 56.7776C52.2055 57.6386 49.6523 58.3362 49.6375 58.3362C49.6078 58.3362 49.3852 57.9354 49.118 57.4456C48.5688 56.4214 47.2477 55.1151 46.2828 54.655C45.6 54.3136 42.0969 53.0964 37.1539 51.4487L34.1555 50.4542L33.0422 49.3854C30.8008 47.2182 28.3813 46.2089 25.0859 46.0753C23.6906 46.0307 23.1711 46.0604 22.2953 46.2979ZM26.6445 49.2073C27.2234 49.3261 28.2328 49.6972 28.9008 50.0237C29.8656 50.4987 30.3109 50.8401 31.1719 51.7604L32.2406 52.9034L38.5047 55.0261C42.4086 56.362 44.9766 57.312 45.3477 57.5643C46.1492 58.1284 46.743 59.019 46.8469 59.8503C46.9805 60.8448 46.3867 62.0472 45.5258 62.5518C44.2641 63.294 44.3977 63.3237 36.6195 60.8597C31.6172 59.2714 29.4055 58.6331 29.1531 58.6925C28.5 58.8557 28.0547 59.4347 28.0547 60.1026C28.0547 61.2604 27.9953 61.2456 35.7734 63.7097C42.4234 65.8323 42.8836 65.9511 44.0117 65.9511C46.55 65.9511 48.7023 64.4222 49.5039 62.062L49.7266 61.3792L54.818 59.9839C62.9523 57.7276 62.4477 57.8464 63.3531 58.0245C64.4219 58.2323 64.9859 58.6776 65.4164 59.6425C66.0844 61.0675 65.6242 62.4034 64.125 63.4722C63.6352 63.8136 60.2805 65.0753 51.9531 68.0589C45.6297 70.33 39.9891 72.3487 39.4102 72.5565C38.5195 72.8831 38.1188 72.9425 36.6641 72.9425C35.4914 72.9425 34.6602 72.8682 33.9922 72.6901C32.8344 72.3636 27.3719 69.6917 24.2695 67.9253C21.8203 66.53 20.4398 65.9956 18.5992 65.7432L17.3672 65.5651V59.6128V53.6604L18.1242 52.6511C18.9406 51.5675 20.2469 50.4393 21.375 49.8159C22.8594 48.9995 24.6852 48.7917 26.6445 49.2073ZM8.75781 62.344V70.2112H5.86328H2.96875V62.344V54.4768H5.86328H8.75781V62.344ZM14.3984 61.0081V67.5542L13.107 67.5097L11.8008 67.4651L11.7563 61.1565C11.7414 57.6831 11.7563 54.7589 11.8008 54.655C11.8453 54.5362 12.2609 54.4768 13.1367 54.4768H14.3984V61.0081Z" fill="#FCE301"/>
<path d="M23.1415 57.4317C22.1322 58.4411 23.0228 60.1629 24.4032 59.9106C25.1157 59.777 25.6056 59.1981 25.6056 58.4559C25.6056 57.9661 25.5165 57.7879 25.1157 57.4317C24.4626 56.8379 23.7353 56.8379 23.1415 57.4317Z" fill="#FCE301"/>
</svg>
