<svg width="77" height="77" viewBox="0 0 77 77" fill="none" xmlns="http://www.w3.org/2000/svg">
<path d="M46.3797 0.148506C46.2015 0.222763 44.4045 2.48011 42.3996 5.15329L38.7463 10.0244L35.6721 10.1135C32.197 10.2175 31.3802 10.3957 29.7317 11.4056C23.9398 14.8955 23.9398 23.123 29.7317 26.613C30.2366 26.9249 31.098 27.3407 31.6326 27.5189C32.5979 27.8456 32.6276 27.8456 47.6717 27.9199L62.7455 27.9941L63.5623 28.4545C64.4979 28.9743 65.4038 30.0733 65.6711 30.9643C65.9384 31.8702 65.8642 33.2662 65.5226 34.0385C65.1216 34.9444 64.3345 35.8058 63.4583 36.2364C62.79 36.5929 62.5821 36.6077 59.8941 36.6523L57.0278 36.6968V34.083C57.0278 31.4396 56.9536 31.0237 56.4486 30.6376C56.1071 30.3703 19.93 30.3703 19.5885 30.6376C19.0093 31.0831 19.0093 31.2019 19.0093 41.1224C19.0093 48.0727 18.9647 50.7904 18.8459 50.7904C18.7568 50.7904 18.1182 51.0577 17.4202 51.3845L16.143 51.9785H8.07894H2.45041H0V53.2408V54.5032H2.45041H7.57401H15.148V64.0078V73.5124H7.57401H2.45041H0V74.7748V76.0371H2.45041H24.415C48.4737 76.0371 48.8449 76.0371 49.7954 75.7401C50.5082 75.5173 53.7903 73.6312 62.0326 68.6859C68.2255 64.9731 73.6016 61.6613 73.9877 61.3346C75.8144 59.7753 76.4826 56.9684 75.5916 54.6071C74.9381 52.8993 73.2451 51.3399 71.5373 50.9241C70.4086 50.6419 68.5374 50.7013 67.6463 51.0429C67.2453 51.2062 64.7949 52.4537 62.2257 53.82C59.6565 55.2012 57.4288 56.3892 57.2952 56.4635C57.0427 56.5823 57.0278 56.1368 57.0278 47.9984V39.3997L59.8941 39.3106C63.0722 39.2215 63.7553 39.073 65.2256 38.1225C67.275 36.8156 68.3591 34.7513 68.3443 32.2267C68.3294 29.702 66.9334 27.3407 64.8395 26.2566C63.2207 25.4249 64.3048 25.4843 48.043 25.3952C34.6325 25.3209 32.9692 25.2764 32.3455 25.0685C30.6079 24.4596 29.2565 23.227 28.4842 21.5785C26.91 18.237 28.7515 14.1381 32.3455 12.9798C32.8207 12.8164 33.9345 12.7273 35.8058 12.6679L38.5829 12.5788L42.3253 17.5687C45.251 21.4745 46.1569 22.5884 46.5133 22.7072C46.8252 22.826 51.3399 22.8705 60.8445 22.8705C75.948 22.8705 75.5767 22.8854 75.8886 22.0537C75.9777 21.8013 76.0371 17.7915 76.0371 11.2719V0.861359L75.6064 0.430672L75.1758 0L60.9337 0.0148468C53.0181 0.0148468 46.5579 0.0742493 46.3797 0.148506ZM73.4827 11.3907L73.4382 20.2716L60.503 20.3162L47.5677 20.3459L44.7164 16.5589C43.157 14.4797 41.8798 12.7422 41.8798 12.6976C41.8798 12.653 42.4739 12.6233 43.2016 12.6233H44.5233L44.9094 13.2768C45.6817 14.5985 46.8846 15.2223 48.4737 15.1183C50.1518 15.0144 51.4587 13.9005 51.8448 12.2372C52.5428 9.16306 49.2905 6.60869 46.4688 8.03439C45.8747 8.33141 44.9391 9.31157 44.7758 9.7868C44.6867 10.069 44.5827 10.0987 43.261 10.0987C42.1471 10.0987 41.8798 10.0541 41.9838 9.90562C42.0729 9.81651 43.3501 8.10864 44.8352 6.11861L47.5232 2.52467H60.5178H73.5124L73.4827 11.3907ZM48.5479 10.262C49.8548 10.7224 49.5429 12.6085 48.1469 12.6233C46.7509 12.6382 46.4985 10.6927 47.8202 10.2026C47.939 10.1581 48.043 10.1135 48.0578 10.1135C48.0727 10.0987 48.2806 10.1729 48.5479 10.262ZM32.9692 36.3404C32.9841 39.8898 32.9989 40.0234 33.6672 40.365C34.1127 40.6175 41.9244 40.6175 42.3699 40.365C43.0382 40.0234 43.053 39.8898 43.0679 36.3404V32.9692H48.7855H54.5032L54.4735 45.4738L54.4289 57.9931L53.5378 58.4684C53.0478 58.7357 52.6022 58.9585 52.5428 58.9585C52.4983 58.9585 52.4834 58.5723 52.528 58.0823C52.7656 55.4239 51.0726 53.0032 48.4291 52.2161C47.7311 52.0082 46.6618 51.9785 41.1373 51.9785H34.6474L33.5336 51.4587C32.1376 50.8201 30.5782 50.3003 28.9446 49.9588C27.5338 49.6617 23.4943 49.6023 22.2468 49.8548L21.5339 50.0033V41.4937V32.9692H27.2516H32.9692V36.3404ZM40.5432 35.4939V38.0186H38.0186H35.4939V35.4939V32.9692H38.0186H40.5432V35.4939ZM28.5882 52.5131C30.0287 52.8101 31.3505 53.2557 32.7316 53.9388L33.9197 54.5032H40.6026C45.0134 54.5032 47.5083 54.5626 47.8945 54.6665C48.2657 54.7705 48.7261 55.0675 49.1123 55.4833C50.1073 56.5229 50.3152 57.7852 49.6766 59.0624C49.2311 59.9386 48.5034 60.503 47.5232 60.7257C47.1222 60.8148 44.4342 60.8891 40.8997 60.8891H34.9444L34.6177 61.2455C34.2464 61.6316 34.1721 62.2851 34.4395 62.79C34.7662 63.3841 35.3454 63.4286 42.7709 63.3841L49.8251 63.3395L58.8842 58.4981C63.8741 55.8398 68.1661 53.5675 68.4483 53.4636C69.176 53.1814 70.661 53.226 71.359 53.5527C72.755 54.2061 73.6461 55.7506 73.453 57.1466C73.3194 58.112 72.8442 59.0327 72.2056 59.5228C71.1214 60.3693 49.6766 73.1263 49.0231 73.3194C48.4588 73.4827 45.4738 73.5124 33.0435 73.4827L17.7469 73.4382V63.7108V53.9834L18.8608 53.5081C21.8458 52.231 25.4249 51.8745 28.5882 52.5131Z" fill="#FCE301"/>
<path d="M0 54.5032H2.45041V73.5124H0V54.5032Z" fill="#FCE301"/>
<path d="M30.0468 61.2304C29.0374 62.2398 29.928 63.9617 31.3085 63.7093C32.021 63.5757 32.5109 62.9968 32.5109 62.2546C32.5109 61.7648 32.4218 61.5867 32.021 61.2304C31.3679 60.6367 30.6406 60.6367 30.0468 61.2304Z" fill="#FCE301"/>
<path d="M63.3828 5.68503C63.3828 6.30847 63.368 6.33816 62.8039 6.50144C62.4922 6.60535 62.0617 6.81316 61.8391 6.99128C60.6219 7.95613 60.5328 10.0788 61.6609 11.1327C61.8836 11.3405 62.9227 11.9343 63.9469 12.4686C65.0898 13.0624 65.832 13.5225 65.832 13.6561C65.832 13.8491 65.4461 13.8788 63.3531 13.9233L60.8594 13.953V15.2147V16.4764H62.1211H63.3828V17.0702V17.6639H64.6445H65.9062V17.0702C65.9062 16.6249 65.9805 16.4468 66.1734 16.3874C67.7914 15.8975 68.6969 14.428 68.2812 12.9288C68.0141 11.9194 67.3906 11.385 65.2977 10.3163C64.1547 9.73738 63.3828 9.24753 63.3828 9.12878C63.3828 8.93582 63.7836 8.90613 65.9062 8.90613H68.4297V7.64441V6.38269H67.168H65.9062V5.71472V5.04675H64.6445H63.3828V5.68503Z" fill="#FCE301"/>
<path d="M7.55557 63.5913C4.9876 64.4968 4.2751 67.8515 6.21963 69.7812C8.01573 71.5921 11.0884 71.1171 12.2759 68.8312C12.647 68.1038 12.7064 66.6343 12.3946 65.8179C11.6673 63.9031 9.48526 62.8937 7.55557 63.5913ZM9.72276 66.2781C10.5095 67.0499 9.96026 68.3413 8.83213 68.3413C8.13448 68.3413 7.65948 67.8663 7.65948 67.1687C7.65948 66.0406 8.95088 65.4913 9.72276 66.2781Z" fill="#FCE301"/>
</svg>
