<svg width="16" height="28" viewBox="0 0 16 28" fill="none" xmlns="http://www.w3.org/2000/svg">
<path d="M3.00967 1.96H13.9297V11.2H3.00967V1.96Z" fill="white"/>
<path fill-rule="evenodd" clip-rule="evenodd" d="M1.88967 0C1.62976 0 1.38049 0.10325 1.1967 0.287035C1.01292 0.470821 0.909668 0.720088 0.909668 0.98V26.04V28H2.86967V26.04V13.16H14.9097C15.1696 13.16 15.4188 13.0567 15.6026 12.873C15.7864 12.6892 15.8897 12.4399 15.8897 12.18V0.98C15.8897 0.720088 15.7864 0.470821 15.6026 0.287035C15.4188 0.10325 15.1696 0 14.9097 0H2.02967C2.00594 7.18617e-05 1.98221 0.00100581 1.95855 0.0028C1.93563 0.00105916 1.91265 0.000125248 1.88967 0ZM3.00967 1.96H13.9297V11.2H3.00967V1.96Z" fill="white"/>
</svg>
