<svg width="18" height="18" viewBox="0 0 18 18" fill="none" xmlns="http://www.w3.org/2000/svg">
<path d="M17.8405 7.35159C17.9475 7.96539 18.0009 8.58729 18 9.21029C18 11.9926 17.0015 14.3451 15.264 15.9375H15.2662C13.7467 17.3355 11.658 18.1448 9.18133 18.1448C6.74629 18.1448 4.41098 17.1813 2.68915 15.4663C0.967316 13.7514 0 11.4253 0 8.99995C0 6.57459 0.967316 4.24856 2.68915 2.53356C4.41098 0.818569 6.74629 -0.144904 9.18133 -0.144904C11.4605 -0.171491 13.6616 0.681371 15.3236 2.23504L12.7024 4.8459C11.7548 3.94625 10.4902 3.45359 9.18133 3.47417C6.78615 3.47417 4.75134 5.08367 4.02601 7.251C3.64144 8.38668 3.64144 9.61665 4.02601 10.7523H4.02945C4.75822 12.9162 6.78959 14.5257 9.18477 14.5257C10.422 14.5257 11.4847 14.2102 12.3087 13.6524H12.3053C12.7837 13.3367 13.193 12.9277 13.5084 12.4501C13.8238 11.9725 14.0388 11.4361 14.1404 10.8735H9.18133V7.35274L17.8405 7.35159Z" fill="#737373"/>
</svg>
