<svg id="_Слой_1" data-name="Слой 1" xmlns="http://www.w3.org/2000/svg" width="160" hight="27" viewBox="0 0 1134.73 191.77">
  <defs>
    <style>
      .cls-1 {
        fill: #fff;
      }

      .cls-2 {
        fill: #ffec00;
      }

      .cls-3 {
        fill: none;
        stroke: #fff;
        stroke-miterlimit: 10;
        stroke-width: 13px;
      }
    </style>
  </defs>
  <path class="cls-3" d="M77.28,147.89c-2.07,.14-4.66,.33-7.73,.54-3.06,.24-6.08,.35-9.07,.35-7.47,0-13.66-.87-18.58-2.59-4.95-1.72-8.86-4.26-11.78-7.61-2.92-3.37-4.92-7.51-6.05-12.44-1.11-4.92-1.67-10.67-1.67-17.26v-37.4H6.5v-27.56h15.9V6.5h30.03V43.93h24.19v27.56h-24.19v32.48c0,2.85,.21,5.3,.66,7.4,.45,2.1,1.22,3.82,2.36,5.16,1.13,1.34,2.66,2.36,4.59,3.01,1.93,.68,4.47,1.01,7.61,1.01,1.34,0,2.85-.02,4.5-.12,1.63-.07,3.27-.19,4.92-.33l.21,27.79Z"/>
  <path class="cls-1" d="M163.17,42.58c1.42,.15,2.87,.37,4.37,.67v28.45c-1.65-.45-3.44-.82-5.38-1.12-1.94-.3-3.89-.45-5.82-.45-3.58,0-6.69,.52-9.3,1.57-2.61,1.05-4.82,2.58-6.61,4.59-1.79,2.02-3.14,4.59-4.03,7.73-.9,3.14-1.34,6.87-1.34,11.2v52.2h-31.59V43.92h30.02v29.35l-2.02-4.7c.45-3.14,1.31-6.27,2.58-9.41,1.27-3.14,3.03-5.94,5.27-8.4,2.24-2.46,5-4.48,8.29-6.05,3.28-1.57,7.17-2.35,11.65-2.35,1.19,0,2.5,.08,3.92,.22Z"/>
  <path class="cls-1" d="M203.72,146.99c-4.41-1.79-8.18-4.4-11.31-7.84-3.14-3.43-5.6-7.77-7.39-12.99-1.79-5.23-2.69-11.28-2.69-18.15V43.92h31.59v56.91c0,7.32,1.34,12.66,4.03,16.02,2.69,3.36,6.64,5.04,11.87,5.04,2.99,0,5.67-.52,8.07-1.57,2.39-1.04,4.4-2.61,6.05-4.71,1.64-2.09,2.87-4.74,3.7-7.95,.82-3.21,1.23-6.98,1.23-11.31V43.92h31.59v103.51h-29.8v-28.45l2.69,4.71c-1.05,3.74-2.58,7.21-4.59,10.42-2.02,3.21-4.48,5.98-7.39,8.29-2.91,2.32-6.27,4.11-10.08,5.38-3.81,1.27-8.1,1.9-12.88,1.9-5.38,0-10.27-.9-14.68-2.69Z"/>
  <path class="cls-2" d="M332.66,145.19c-7.02-2.54-13.03-6.12-18.04-10.75-5.01-4.63-8.89-10.16-11.65-16.58-2.77-6.42-4.14-13.52-4.14-21.28,0-8.21,1.42-15.68,4.26-22.41,2.84-6.72,6.76-12.43,11.76-17.14,5-4.7,10.9-8.36,17.7-10.98,6.79-2.61,14.08-3.92,21.84-3.92,8.21,0,15.57,1.38,22.07,4.14,6.5,2.77,11.99,6.61,16.47,11.54,4.48,4.93,7.92,10.75,10.31,17.47,2.39,6.72,3.58,14.04,3.58,21.96v5.83h-90.29v-17.7h79.76l-19.27,11.87v-8.96c0-2.83-.53-5.56-1.57-8.18-1.05-2.61-2.58-4.89-4.59-6.83-2.02-1.94-4.48-3.47-7.39-4.59-2.91-1.12-6.24-1.68-9.97-1.68s-7.13,.64-10.19,1.9c-3.06,1.27-5.64,3.1-7.73,5.49-2.09,2.39-3.74,5.3-4.93,8.74-1.2,3.44-1.79,7.32-1.79,11.65,0,4.78,.71,9,2.13,12.66,1.42,3.66,3.4,6.76,5.94,9.3,2.54,2.54,5.67,4.48,9.41,5.83,3.73,1.34,7.84,2.02,12.32,2.02,5.82,0,11.28-1.01,16.35-3.02,5.08-2.02,9.33-4.96,12.77-8.85l17.25,15.68c-5.53,6.57-12.47,11.65-20.84,15.24-8.37,3.58-17.78,5.38-28.23,5.38-8.51,0-16.28-1.27-23.3-3.81Z"/>
  <rect class="cls-1" x="84.34" y="167.44" width="211.97" height="10.68"/>
  <path class="cls-2" d="M492.77,32.91h-35.85V3.78h105.97v29.13h-35.62v127.71h-34.5V32.91Z"/>
  <polygon class="cls-1" points="293.01 152.47 321.66 172.24 293.01 191.77 293.01 152.47"/>
  <path class="cls-2" d="M657.29,6.97c7.02,2.09,13.03,5.15,18.04,9.19,5,4.03,8.85,9.04,11.54,15.01,2.69,5.98,4.03,12.85,4.03,20.61s-1.34,14.67-4.03,20.72c-2.69,6.05-6.46,11.17-11.31,15.35-4.86,4.18-10.57,7.39-17.14,9.63-6.57,2.24-13.74,3.36-21.51,3.36h-18.15v59.82h-34.5V3.83h49.51c8.66,0,16.5,1.05,23.53,3.14Zm-14.56,63.29c2.69-.97,4.96-2.31,6.83-4.03,1.87-1.71,3.28-3.77,4.26-6.16,.97-2.39,1.46-5,1.46-7.84,0-2.69-.45-5.23-1.34-7.62-.9-2.39-2.24-4.44-4.03-6.16-1.79-1.71-4-3.06-6.61-4.03-2.62-.97-5.71-1.46-9.3-1.46h-15.24v38.76h14.56c3.58,0,6.72-.48,9.41-1.46Zm-17.7,24.09l32.04-11.65,50.86,73.26v4.71h-37.19l-45.7-66.32Z"/>
  <path class="cls-2" d="M772.67,3.16h27.33l62.73,157.5h-36.3l-44.81-119.42h7.62l-44.59,119.42h-33.83L772.67,3.16Zm-23.08,98.58h72.37v27.11h-72.37v-27.11Z"/>
  <path class="cls-2" d="M915.39,160.67h-34.5V3.83h34.5V160.67Zm36.18-32.26c6.64-2.09,12.25-5.19,16.8-9.3,4.56-4.11,8.03-9.3,10.42-15.57,2.39-6.27,3.58-13.59,3.58-21.96s-1.27-15.61-3.81-21.73c-2.54-6.12-6.13-11.16-10.75-15.12-4.63-3.96-10.16-6.91-16.58-8.85-6.42-1.94-13.52-2.91-21.28-2.91h-34.06V3.83h39.66c13.44,0,25.32,1.87,35.62,5.6,10.31,3.74,19.01,8.96,26.1,15.68,7.09,6.72,12.43,14.83,16.02,24.31,3.58,9.49,5.38,20.05,5.38,31.7,0,13.59-2.28,25.39-6.83,35.4-4.56,10.01-10.75,18.3-18.6,24.87-7.84,6.57-16.99,11.43-27.45,14.56-10.46,3.14-21.59,4.71-33.38,4.71h-36.74l.22-29.13h33.16c8.36,0,15.87-1.04,22.52-3.14Z"/>
  <path class="cls-2" d="M1043.09,3.83h89.39v29.13h-54.89v31.14h45.03v28.45h-45.03v38.98h57.13v29.13h-91.63V3.83Z"/>
  <rect class="cls-2" x="431.39" y="91.36" width="25.26" height="10.98"/>
</svg>
