<svg width="228" height="228" viewBox="0 0 228 228" fill="none" xmlns="http://www.w3.org/2000/svg">
<circle cx="114" cy="114" r="114" fill="#19191A"/>
<g clip-path="url(#clip0_704_3)">
<path d="M181.099 214.074L42.1875 203.171L56.1612 17.6487L195.073 28.552L181.099 214.074Z" fill="#FCE301"/>
<path d="M194.674 34.9258C194.65 34.9003 194.626 34.875 194.602 34.8495L194.806 32.1456L194.674 34.9258Z" fill="#D4E2E6"/>
<path d="M194.367 38.0078L194.605 34.8503C194.63 34.8759 194.654 34.9011 194.678 34.9266L194.64 35.7392C194.581 36.5104 194.49 37.2671 194.367 38.0078Z" fill="#DDE6E8"/>
<path d="M164.595 197.625H34.1328V13.9307H164.595V197.625Z" fill="white"/>
<path d="M74.2262 50.4844C98.6102 50.4844 122.994 50.4844 147.378 50.4844C149.367 50.4844 149.367 47.3354 147.378 47.3354C122.994 47.3354 98.6102 47.3354 74.2262 47.3354C72.2371 47.3354 72.2371 50.4844 74.2262 50.4844Z" fill="#737373"/>
<path d="M51.109 69.1406C83.1985 69.1406 115.288 69.1406 147.378 69.1406C149.367 69.1406 149.367 65.9917 147.378 65.9917C115.288 65.9917 83.1985 65.9917 51.109 65.9917C49.1199 65.9917 49.1199 69.1406 51.109 69.1406Z" fill="#737373"/>
<path d="M51.109 87.8008C83.1985 87.8008 115.288 87.8008 147.378 87.8008C149.367 87.8008 149.367 84.6518 147.378 84.6518C115.288 84.6518 83.1985 84.6518 51.109 84.6518C49.1199 84.6518 49.1199 87.8008 51.109 87.8008Z" fill="#737373"/>
<path d="M51.109 106.457C83.1985 106.457 115.288 106.457 147.378 106.457C149.367 106.457 149.367 103.308 147.378 103.308C115.288 103.308 83.1985 103.308 51.109 103.308C49.1199 103.308 49.1199 106.457 51.109 106.457Z" fill="#737373"/>
<path d="M51.109 125.113C83.1985 125.113 115.288 125.113 147.378 125.113C149.367 125.113 149.367 121.964 147.378 121.964C115.288 121.964 83.1985 121.964 51.109 121.964C49.1199 121.964 49.1199 125.113 51.109 125.113Z" fill="#737373"/>
<path d="M53.2532 171.945C66.9694 171.945 80.685 171.945 94.4011 171.945C95.5198 171.945 95.5198 170.174 94.4011 170.174C80.685 170.174 66.9694 170.174 53.2532 170.174C52.1343 170.174 52.1343 171.945 53.2532 171.945Z" fill="#19191A"/>
<path d="M70.9081 160.989C70.8983 161.875 70.6824 162.715 70.3013 163.457C70.1222 162.687 70.465 161.784 70.9081 160.989ZM66.5145 155.978C66.8039 154.293 67.1958 152.627 67.6477 150.981C67.9895 149.736 68.3284 148.42 69.0582 147.368C69.2805 151.953 68.1677 156.356 65.9558 160.302C66.0837 158.856 66.268 157.414 66.5145 155.978ZM86.445 163.925C84.9656 164.473 83.4717 164.664 81.9215 164.516L81.7054 163.883C81.5432 163.408 80.7747 163.307 80.6632 163.883C80.6276 164.066 80.2618 165.676 79.6643 164.883C79.3139 164.418 79.5095 163.69 79.5712 163.162C79.6386 162.586 79.631 161.855 79.2465 161.383C78.8045 160.838 77.5868 160.286 77.0212 161.003C76.1419 162.119 77.4657 163.63 76.424 164.839C75.8128 165.549 74.7167 165.095 74.1533 164.515C74.8988 163.234 74.7383 161.787 74.085 160.494C73.9009 160.129 73.2954 160.111 73.117 160.494C72.5843 161.635 72.2914 163.175 72.7578 164.391C72.2601 164.744 71.5813 164.821 71.0537 164.502C72.0116 163.007 72.3811 161.102 71.8614 159.149C71.7182 158.612 71.0679 158.597 70.7841 159.005C69.908 160.263 69.0881 161.581 69.1851 163.183C69.215 163.677 69.3545 164.13 69.5811 164.524C68.7286 165.508 67.5212 166.175 66.1244 166.314C66.1021 166.232 66.082 166.15 66.0592 166.068C65.9659 165.736 65.8585 165.408 65.7473 165.082C65.7473 164.312 65.7595 163.543 65.7919 162.775C65.909 162.585 66.0433 162.395 66.1803 162.193C66.8155 161.255 67.3578 160.256 67.8506 159.235C69.8139 155.163 70.5667 150.515 70.0923 146.013C70.0369 145.489 69.5245 145.272 69.1222 145.603C67.929 146.583 67.384 147.998 66.9314 149.449C66.3381 151.35 65.886 153.297 65.5179 155.255C65.0798 157.587 64.8136 159.951 64.7004 162.322C64.6548 162.388 64.6102 162.455 64.5642 162.521C63.9229 163.44 64.2904 164.444 64.6377 165.402C64.6416 165.9 64.6516 166.398 64.6683 166.896C64.6793 167.218 64.9124 167.441 65.2214 167.461L65.2459 167.462C65.4966 168.515 65.6743 169.587 65.7907 170.663C66.1254 173.747 65.824 176.871 65.005 179.852C63.8964 179.322 63.7462 173.362 63.7155 172.559C63.6357 170.467 63.7861 168.409 63.942 166.336C64.1035 166.238 64.2162 166.05 64.1716 165.801L64.0162 164.937C63.9229 164.418 63.0826 164.416 62.9907 164.937C62.5503 167.431 62.5123 170.032 62.5824 172.559C62.6194 173.881 62.7309 175.2 62.8797 176.514C63.0005 177.579 63.0713 178.721 63.482 179.716C63.9608 180.876 65.6159 181.851 66.1021 180.198C66.7736 177.914 67.0561 175.51 67.0684 173.13C67.0784 171.214 66.8324 169.296 66.4033 167.429C67.9768 167.244 69.355 166.495 70.3619 165.399C70.5829 165.563 70.8297 165.698 71.0987 165.799C71.8119 166.066 72.7043 165.825 73.3743 165.351C73.4932 165.471 73.6208 165.586 73.7693 165.688C75.1193 166.616 77.2626 166.482 77.8115 164.647C78.0857 163.73 77.9967 162.82 77.8348 161.891C78.0115 161.792 78.1756 161.833 78.3276 162.011C78.6557 162.277 78.4722 163.199 78.4315 163.568C78.3724 164.1 78.3339 164.702 78.5974 165.193C78.9461 165.843 79.4619 166.33 80.2221 166.289C80.6813 166.265 81.0156 165.923 81.2535 165.494C81.3307 165.538 81.4206 165.566 81.5243 165.58C83.3058 165.818 85.046 165.623 86.7361 165.003C87.3958 164.761 87.1098 163.679 86.445 163.925Z" fill="#19191A"/>
<path d="M89.2429 166.283C88.6274 166.283 88.6274 167.258 89.2429 167.258C89.8587 167.258 89.8587 166.283 89.2429 166.283Z" fill="#19191A"/>
</g>
<defs>
<clipPath id="clip0_704_3">
<rect width="161" height="200" fill="white" transform="translate(34 14)"/>
</clipPath>
</defs>
</svg>
