<svg width="14" height="14" viewBox="0 0 14 14" fill="none" xmlns="http://www.w3.org/2000/svg">
<path d="M12.6322 13.6693L7.96557 9.0026C7.5952 9.2989 7.16927 9.53347 6.68779 9.70631C6.20631 9.87915 5.69396 9.96557 5.15075 9.96557C3.80507 9.96557 2.66631 9.49939 1.73446 8.56705C0.802604 7.6347 0.336431 6.49594 0.335938 5.15075C0.335938 3.80507 0.80211 2.66631 1.73446 1.73446C2.6668 0.802604 3.80557 0.336431 5.15075 0.335938C6.49643 0.335938 7.6352 0.80211 8.56705 1.73446C9.4989 2.6668 9.96507 3.80557 9.96557 5.15075C9.96557 5.69396 9.87915 6.20631 9.70631 6.68779C9.53347 7.16927 9.2989 7.5952 9.0026 7.96557L13.6693 12.6322L12.6322 13.6693ZM5.15075 8.48409C6.07668 8.48409 6.86384 8.15989 7.51223 7.51149C8.16063 6.8631 8.48458 6.07618 8.48409 5.15075C8.48409 4.22483 8.15989 3.43767 7.51149 2.78927C6.8631 2.14088 6.07618 1.81693 5.15075 1.81742C4.22483 1.81742 3.43767 2.14162 2.78927 2.79001C2.14088 3.43841 1.81693 4.22532 1.81742 5.15075C1.81742 6.07668 2.14162 6.86384 2.79001 7.51223C3.43841 8.16063 4.22532 8.48458 5.15075 8.48409Z" fill="#737373"/>
</svg>
