<svg width="14" height="14" viewBox="0 0 14 14" fill="none" xmlns="http://www.w3.org/2000/svg">
<g clip-path="url(#clip0_223_3926)">
<path d="M1.75 13.0343V0.970937C1.75 0.868829 1.79148 0.770903 1.86533 0.698701C1.93917 0.6265 2.03932 0.585938 2.14375 0.585938H9.79037C9.89477 0.586027 9.99485 0.626649 10.0686 0.698871L12.1345 2.71884C12.1712 2.75471 12.2003 2.79732 12.2202 2.84424C12.24 2.89115 12.2501 2.94143 12.25 2.99219V13.0343C12.25 13.0848 12.2398 13.1349 12.22 13.1816C12.2002 13.2283 12.1712 13.2708 12.1347 13.3065C12.0981 13.3423 12.0547 13.3706 12.0069 13.39C11.9592 13.4093 11.908 13.4193 11.8562 13.4193H2.14375C2.09204 13.4193 2.04084 13.4093 1.99307 13.39C1.9453 13.3706 1.90189 13.3423 1.86533 13.3065C1.82876 13.2708 1.79976 13.2283 1.77997 13.1816C1.76018 13.1349 1.75 13.0848 1.75 13.0343Z" stroke="#FCE301" stroke-width="1.5" stroke-linecap="round" stroke-linejoin="round"/>
<path d="M8.75 0.875V3.85C8.75 3.98924 8.80531 4.12277 8.90377 4.22123C9.00223 4.31969 9.13576 4.375 9.275 4.375H12.25" stroke="#FCE301" stroke-width="1.5" stroke-linecap="round" stroke-linejoin="round"/>
</g>
<defs>
<clipPath id="clip0_223_3926">
<rect width="14" height="14" fill="white"/>
</clipPath>
</defs>
</svg>
