<svg width="76" height="76" viewBox="0 0 76 76" fill="none" xmlns="http://www.w3.org/2000/svg">
<g clip-path="url(#clip0_209_16)">
<path d="M-0.05 1.66202V1.67734V12.1867V22.6961V22.7207L-0.0304855 22.7357L0.355076 23.0323C0.450055 23.1083 0.537853 23.1687 0.675144 23.2144C0.810759 23.2595 0.992431 23.2895 1.2748 23.31C1.8393 23.351 2.82137 23.3547 4.67578 23.3547C6.55984 23.3547 7.53831 23.351 8.12334 23.3063C8.41647 23.2839 8.61333 23.251 8.77717 23.2023C8.94122 23.1535 9.07008 23.0894 9.22633 23.0076L9.22657 23.0074C10.4546 22.3555 10.9365 20.707 10.2868 19.4227L10.2865 19.4221C10.2044 19.2653 10.1145 19.108 10.0336 18.9838C9.99318 18.9218 9.95449 18.8673 9.91969 18.8249C9.88653 18.7846 9.85194 18.749 9.81924 18.7326C9.80741 18.7267 9.78448 18.7066 9.75131 18.6663C9.71977 18.6279 9.68332 18.5767 9.64394 18.5163C9.56532 18.3956 9.47711 18.2413 9.39598 18.0864C8.46512 16.2532 10.1987 14.0724 12.159 14.5952L12.159 14.5952C13.3107 14.9013 14.0516 15.847 14.0516 16.9961C14.0516 17.3715 14.0184 17.6314 13.9105 17.8957C13.802 18.1615 13.6166 18.4352 13.3051 18.8357C12.431 19.951 12.4139 21.432 13.2765 22.461L13.2765 22.461C13.4515 22.6695 13.6041 22.8333 13.8033 22.9587C14.003 23.0845 14.2461 23.1697 14.6 23.2279C15.3046 23.3437 16.4639 23.3547 18.6289 23.3547H22.5773H22.5987L22.6134 23.3393L22.969 22.9689L23.3393 22.6134L23.3547 22.5987V22.5773V18.8812C23.3547 17.8648 23.3658 16.93 23.3825 16.244C23.3909 15.9009 23.4006 15.6203 23.411 15.423C23.4162 15.3242 23.4215 15.2468 23.4269 15.1931C23.4294 15.1681 23.4318 15.149 23.4341 15.1356C23.4437 15.1364 23.4574 15.139 23.4757 15.1445C23.519 15.1574 23.5783 15.1835 23.6505 15.2219C23.7941 15.2983 23.9812 15.4192 24.1804 15.5667L24.1806 15.5669C24.7108 15.9552 25.1838 16.2072 25.7053 16.3522C26.2263 16.497 26.7925 16.5341 27.5079 16.4968C28.0061 16.4745 28.3514 16.4372 28.6531 16.3618C28.9556 16.2862 29.212 16.1728 29.533 16.0011L29.5332 16.001C32.3073 14.5015 33.0114 10.8134 31.0176 8.36995L31.0174 8.36967C29.4269 6.44908 26.2351 6.08936 24.2544 7.6045C24.0622 7.74491 23.8742 7.87397 23.7252 7.96775C23.6506 8.01473 23.5865 8.05242 23.537 8.07819C23.5121 8.09111 23.4918 8.1006 23.4761 8.10674C23.4756 8.10695 23.4751 8.10715 23.4746 8.10734C23.4731 8.1024 23.4714 8.09651 23.4697 8.08957C23.4604 8.05127 23.451 7.99194 23.4421 7.91085C23.4242 7.74932 23.4084 7.50856 23.3955 7.19345C23.3695 6.56359 23.3547 5.64034 23.3547 4.46797C23.3547 2.71751 23.351 1.78728 23.31 1.24865C23.2895 0.979137 23.2594 0.80393 23.2142 0.671534C23.1686 0.537685 23.1082 0.450016 23.0324 0.355169C23.0323 0.355015 23.0321 0.354858 23.032 0.354704L22.7357 -0.0304852L22.7207 -0.0499992H22.6961H12.1867H1.67734H1.66202L1.64933 -0.0414143L1.14492 0.299805L-0.05 1.66202ZM-0.05 1.66202L-0.0414142 1.64933M-0.05 1.66202L-0.0414142 1.64933M-0.0414142 1.64933L0.299804 1.14492C0.299834 1.14488 0.299864 1.14483 0.299894 1.14479M-0.0414142 1.64933L0.299894 1.14479M14.8586 13.3297C13.9086 12.4688 12.9141 12.1125 11.4742 12.1125C8.95078 12.1273 6.94688 14.0273 6.72422 16.6102C6.62031 17.8719 6.93203 19.0297 7.64453 19.95C7.92656 20.3359 8.16406 20.707 8.16406 20.7812C8.16406 20.8703 7.06562 20.9297 5.19531 20.9297H2.27656V20.8797M14.8586 13.3297L14.8919 13.2924C14.892 13.2925 14.892 13.2925 14.8921 13.2926M14.8586 13.3297C15.9719 14.3242 16.4766 15.4672 16.4766 16.9367C16.4766 18.2727 16.2094 19.1188 15.5117 20.0094M14.8586 13.3297L14.8922 13.2926C14.8922 13.2926 14.8921 13.2926 14.8921 13.2926M14.8921 13.2926C13.9317 12.4223 12.9247 12.0625 11.4742 12.0625H11.4739C8.92349 12.0775 6.89918 13.9985 6.6744 16.6059L6.67439 16.6061C6.5696 17.8784 6.88383 19.0488 7.60458 19.9801M14.8921 13.2926C16.0159 14.2966 16.5266 15.4531 16.5266 16.9367C16.5266 18.2817 16.2568 19.1391 15.5513 20.0399M7.60458 19.9801C7.60444 19.9799 7.6043 19.9797 7.60416 19.9795L7.64453 19.95L7.60499 19.9806C7.60486 19.9804 7.60472 19.9802 7.60458 19.9801ZM7.60458 19.9801C7.74496 20.1722 7.87399 20.3603 7.96775 20.5092C8.01473 20.5838 8.05242 20.6479 8.07819 20.6974C8.09111 20.7222 8.1006 20.7426 8.10674 20.7583C8.10729 20.7597 8.1078 20.761 8.10827 20.7623M8.10827 20.7623C8.11743 20.7591 8.1225 20.7566 8.12472 20.7552C8.12559 20.7547 8.12594 20.7544 8.1259 20.7544C8.12571 20.7544 8.11406 20.7627 8.11406 20.7812C8.11406 20.782 8.11365 20.7767 8.10827 20.7623ZM8.10827 20.7623C8.1055 20.7632 8.10235 20.7643 8.09879 20.7653C8.06893 20.7743 8.02183 20.7835 7.95643 20.7925C7.82637 20.8103 7.6323 20.826 7.3785 20.8389C6.87133 20.8648 6.13011 20.8797 5.19531 20.8797H2.27656M2.27656 20.8797V11.8156C2.27656 7.77043 2.28399 5.48525 2.31737 4.18537C2.33406 3.53508 2.35722 3.13325 2.38889 2.88152C2.40473 2.75562 2.42246 2.66928 2.4418 2.60902C2.46108 2.54893 2.48102 2.51782 2.49942 2.49942C2.51782 2.48102 2.54893 2.46108 2.60902 2.4418C2.66928 2.42246 2.75562 2.40473 2.88152 2.38889C3.13325 2.35723 3.53508 2.33406 4.18537 2.31737C5.48525 2.28399 7.77043 2.27656 11.8156 2.27656H20.8797V5.44766C20.8797 6.99018 20.8833 7.80944 20.9281 8.31322C20.9506 8.56585 20.9835 8.74158 21.0325 8.89075C21.0814 9.04006 21.1457 9.16057 21.2278 9.30234M2.27656 20.8797L21.2278 9.30234M15.5117 20.0094L21.2276 9.30202C21.2277 9.30213 21.2277 9.30223 21.2278 9.30234M15.5117 20.0094L15.5511 20.0402C15.5512 20.0401 15.5512 20.04 15.5513 20.0399M15.5117 20.0094L15.5515 20.0396C15.5515 20.0397 15.5514 20.0398 15.5513 20.0399M15.5513 20.0399C15.4116 20.2238 15.2944 20.4034 15.2179 20.5436C15.1796 20.6139 15.1523 20.6728 15.1374 20.7165C15.1301 20.7377 15.1265 20.7534 15.1253 20.7641M15.1253 20.7641C15.1346 20.7671 15.148 20.7705 15.1662 20.7741C15.2078 20.7824 15.268 20.7906 15.3456 20.7985C15.5006 20.8144 15.7203 20.8287 15.989 20.8408C16.5261 20.8649 17.2564 20.8797 18.05 20.8797H20.8797V17.8125C20.8797 16.1073 20.898 15.1593 21.0123 14.5488C21.0697 14.242 21.1517 14.018 21.2689 13.8247C21.3859 13.6319 21.5365 13.4723 21.7267 13.2933L21.7272 13.2928C21.9943 13.0486 22.3804 12.8563 22.7864 12.7416C23.1921 12.6271 23.6229 12.5886 23.9813 12.657C24.1309 12.6808 24.3743 12.7807 24.6444 12.9157C24.9171 13.0521 25.223 13.2274 25.4991 13.4065L25.4996 13.4068C25.9228 13.6889 26.193 13.8491 26.4391 13.9396C26.6834 14.0294 26.9067 14.0516 27.2383 14.0516C28.5919 14.0516 29.6375 13.0192 29.6375 11.6969C29.6375 10.9284 29.3925 10.2998 28.9617 9.86355C28.5309 9.42737 27.9099 9.17891 27.1492 9.17891C26.778 9.17891 26.5554 9.19402 26.3599 9.25979C26.1649 9.32538 25.9927 9.44276 25.7259 9.65769L25.7253 9.65813C25.3826 9.92638 24.8738 10.2561 24.5858 10.3773L24.5856 10.3774C23.347 10.891 21.8647 10.4242 21.2278 9.30234M15.1253 20.7641C15.1252 20.7645 15.1252 20.7649 15.1252 20.7653C15.1246 20.7712 15.125 20.7736 15.125 20.7736C15.125 20.7737 15.1248 20.7724 15.1239 20.7705C15.1236 20.7697 15.1231 20.7688 15.1224 20.7677C15.122 20.7672 15.1216 20.7666 15.1212 20.7661C15.1196 20.7641 15.1181 20.7627 15.1171 20.7619L15.1153 20.7604L15.1146 20.7599C15.1145 20.7599 15.115 20.7602 15.1163 20.7608L15.1213 20.7627C15.1225 20.7632 15.1239 20.7636 15.1253 20.7641ZM0.299894 1.14479C0.481658 0.872206 0.872019 0.481829 1.14464 0.299992L0.299894 1.14479ZM6.72416 16.6102L6.72416 16.6102L6.72416 16.6102Z" fill="#FCE301" stroke="#FCE301" stroke-width="0.1"/>
<path d="M52.9922 9.24074L52.9924 9.24121C53.6297 10.455 55.2934 10.9363 56.5773 10.2868L56.5779 10.2865C56.7347 10.2044 56.892 10.1145 57.0162 10.0336C57.0782 9.99319 57.1327 9.95449 57.1751 9.91969C57.2143 9.88744 57.2491 9.85382 57.266 9.82191C57.3046 9.76202 57.3956 9.68605 57.5267 9.60436C57.6569 9.52323 57.8202 9.4404 57.9938 9.36598C58.3432 9.21626 58.725 9.10471 58.9593 9.10469C60.5327 9.11953 61.7963 10.6943 61.4049 12.144L61.4048 12.1443C61.0985 13.3109 60.1528 14.0516 59.0039 14.0516C58.6285 14.0516 58.3686 14.0184 58.1043 13.9105C57.8385 13.802 57.5648 13.6166 57.1643 13.3051C56.049 12.431 54.568 12.4139 53.539 13.2765L53.539 13.2765C53.3305 13.4515 53.1667 13.6041 53.0413 13.8033C52.9155 14.003 52.8303 14.2461 52.7721 14.6C52.6563 15.3046 52.6453 16.4639 52.6453 18.6289V22.5773V22.5987L52.6607 22.6134L53.031 22.969L53.3866 23.3393L53.4013 23.3547H53.4227H57.1188C58.1352 23.3547 59.0663 23.3658 59.7504 23.3825C60.0926 23.3909 60.3727 23.4006 60.5708 23.411C60.6699 23.4162 60.7479 23.4215 60.8027 23.4269C60.8266 23.4292 60.8454 23.4315 60.8593 23.4337C60.8578 23.4427 60.8548 23.4545 60.85 23.4692C60.8365 23.5098 60.8112 23.5648 60.7747 23.6313C60.702 23.764 60.5885 23.9362 60.4486 24.1204C59.6829 25.1113 59.4285 26.0738 59.5032 27.5229L59.5032 27.523C59.5555 28.4802 59.8025 29.3017 60.2516 29.9913C60.7006 30.6808 61.3499 31.2356 62.2026 31.6619L62.203 31.6621C62.5972 31.8555 62.8689 31.969 63.1682 32.0335C63.467 32.0977 63.7908 32.1125 64.2883 32.1125C65.3491 32.1125 66.26 31.8921 67.0132 31.4526C67.7666 31.0129 68.3594 30.3556 68.7863 29.4869L68.7864 29.4868C69.6546 27.7053 69.5063 25.7108 68.3955 24.2544C68.2551 24.0623 68.126 23.8742 68.0323 23.7252C67.9853 23.6506 67.9476 23.5865 67.9218 23.537C67.9089 23.5121 67.8994 23.4918 67.8933 23.4761C67.893 23.4756 67.8928 23.4751 67.8927 23.4746C67.8976 23.4731 67.9035 23.4714 67.9104 23.4697C67.9487 23.4604 68.0081 23.451 68.0891 23.4421C68.2507 23.4242 68.4914 23.4084 68.8065 23.3955C69.4364 23.3695 70.3597 23.3547 71.532 23.3547C73.2825 23.3547 74.2127 23.351 74.7514 23.31C75.0209 23.2895 75.1961 23.2594 75.3285 23.2142C75.4623 23.1686 75.55 23.1082 75.6449 23.0324C75.645 23.0322 75.6452 23.0321 75.6453 23.032L76.0305 22.7357L76.05 22.7207V22.6961V12.1867V1.67734V1.66202L76.0414 1.64933L75.7002 1.14492L52.9922 9.24074ZM52.9922 9.24074C52.9104 9.08083 52.8464 8.94926 52.7976 8.78326C52.749 8.61743 52.7161 8.41925 52.6937 8.12519C52.649 7.53831 52.6453 6.55985 52.6453 4.67578C52.6453 2.82137 52.649 1.8393 52.69 1.2748C52.7105 0.992432 52.7405 0.81076 52.7856 0.675144C52.8313 0.537872 52.8917 0.450079 52.9677 0.355116C52.9678 0.354979 52.9679 0.354841 52.968 0.354704L53.2643 -0.0304832L53.2793 -0.0499992H53.3039H58.4695C60.9773 -0.0499992 62.2705 -0.0463104 62.97 -0.00724411C63.3191 0.0122528 63.525 0.0407257 63.6614 0.0838318C63.8022 0.128344 63.8685 0.188442 63.9386 0.262484L63.9392 0.263088M52.9922 9.24074L63.9392 0.263088M66.3569 25.7404L66.357 25.7406C67.4608 27.1203 66.6926 29.2157 64.9159 29.609C63.3581 29.9437 61.9484 28.8237 61.9484 27.2383C61.9484 26.9067 61.9706 26.6834 62.0604 26.4391C62.1509 26.193 62.3111 25.9228 62.5932 25.4996L62.5935 25.4991C62.7726 25.223 62.9479 24.9171 63.0843 24.6444C63.2193 24.3743 63.3192 24.1309 63.343 23.9813C63.4114 23.6229 63.3729 23.1921 63.2584 22.7864C63.1437 22.3804 62.9514 21.9943 62.7072 21.7272L62.7067 21.7267C62.5277 21.5365 62.3681 21.3859 62.1753 21.2689C61.982 21.1517 61.758 21.0697 61.4512 21.0123C60.8407 20.898 59.8927 20.8797 58.1875 20.8797H55.1203V18.05C55.1203 17.2564 55.1351 16.5261 55.1592 15.989C55.1713 15.7203 55.1856 15.5006 55.2015 15.3456C55.2094 15.268 55.2176 15.2078 55.2259 15.1662C55.2295 15.148 55.2329 15.1346 55.2359 15.1253C55.2466 15.1265 55.2623 15.1301 55.2835 15.1374C55.3272 15.1523 55.3861 15.1796 55.4564 15.2179C55.5966 15.2943 55.7762 15.4115 55.9601 15.5513C55.9602 15.5514 55.9603 15.5515 55.9604 15.5515L55.9906 15.5117L66.3569 25.7404ZM66.3569 25.7404C65.6703 24.8747 65.4109 24.2851 65.4109 23.4977C65.4109 22.5457 65.9094 21.6675 66.698 21.2276C66.8396 21.1456 66.96 21.0814 67.1092 21.0325C67.2584 20.9835 67.4342 20.9506 67.6868 20.9281C68.1906 20.8833 69.0098 20.8797 70.5523 20.8797H73.7234V11.8156C73.7234 7.77044 73.716 5.48526 73.6826 4.18537C73.6659 3.53508 73.6428 3.13325 73.6111 2.88152C73.5953 2.75562 73.5775 2.66928 73.5582 2.60902C73.5389 2.54893 73.519 2.51782 73.5006 2.49942C73.4186 2.41746 73.2662 2.35816 72.8232 2.32279C72.3839 2.28773 71.6735 2.27656 70.493 2.27656C69.188 2.27656 68.4799 2.27291 68.0632 2.23367C67.8545 2.21401 67.7147 2.18514 67.608 2.14131C67.4996 2.09681 67.4283 2.03812 67.3553 1.96504C67.1658 1.77561 67.0437 1.4501 67.0437 1.11328C67.0437 0.776461 67.1658 0.450951 67.3553 0.26152C67.4286 0.188166 67.5003 0.129219 67.6173 0.0847645C67.7321 0.0411644 67.8881 0.0124321 68.1288 -0.00716019C68.61 -0.0463333 69.4477 -0.0499992 71.0125 -0.0499992C72.6069 -0.0499992 73.4411 -0.0463448 73.9375 -0.0015564C74.1864 0.0209007 74.3535 0.0539093 74.4904 0.103256C74.6276 0.152727 74.732 0.217747 74.8551 0.299805C75.1277 0.481527 75.5181 0.871975 75.7 1.14464L66.3569 25.7404ZM63.9392 0.263088C64.0271 0.358999 64.1005 0.499548 64.1519 0.649944C64.2035 0.800808 64.2344 0.965868 64.2344 1.11328C64.2344 1.26069 64.2035 1.42575 64.1519 1.57662C64.1005 1.72689 64.0272 1.86734 63.9394 1.96325M63.9392 0.263088L61.1035 16.0913C64.9123 14.2917 64.8966 8.87886 61.0588 7.07979C59.5134 6.34465 57.3562 6.56901 56.0199 7.60458C55.8278 7.74496 55.6397 7.87399 55.4908 7.96775C55.4162 8.01473 55.3521 8.05242 55.3026 8.07819C55.2778 8.09111 55.2574 8.1006 55.2417 8.10674C55.2403 8.10729 55.239 8.1078 55.2377 8.10827C55.2368 8.1055 55.2357 8.10235 55.2347 8.09879C55.2257 8.06893 55.2165 8.02183 55.2075 7.95643C55.1897 7.82637 55.174 7.63231 55.1611 7.3785C55.1352 6.87133 55.1203 6.13011 55.1203 5.19531V2.27656H59.3453C61.415 2.27656 62.4934 2.27288 63.0855 2.23378C63.3811 2.21426 63.5605 2.18569 63.683 2.14217C63.8092 2.09732 63.8733 2.03708 63.9394 1.96325M63.9394 1.96325C63.9395 1.96317 63.9395 1.9631 63.9396 1.96303L63.9024 1.92973L63.9392 1.96347C63.9393 1.9634 63.9393 1.96333 63.9394 1.96325Z" fill="#FCE301" stroke="#FCE301" stroke-width="0.1"/>
<path d="M34.5962 12.6239C34.0988 12.1575 34.1169 11.368 34.6246 10.875C34.7689 10.7233 34.9015 10.6249 35.0765 10.5659C35.2498 10.5075 35.4608 10.4891 35.7586 10.4891C36.6683 10.4891 37.2013 10.6977 37.4369 11.216C37.5652 11.4952 37.6174 11.7358 37.5818 11.9589C37.5462 12.1825 37.4238 12.3809 37.2191 12.5782C37.0673 12.7375 36.934 12.8364 36.7374 12.8934C36.5442 12.9495 36.2926 12.9641 35.9071 12.9641C35.5286 12.9641 35.2743 12.9494 35.0783 12.8994C34.8792 12.8487 34.742 12.762 34.5962 12.6239Z" fill="#FCE301" stroke="#FCE301" stroke-width="0.1"/>
<path d="M40.4577 10.9497L40.4577 10.9497L40.459 10.9484C40.6815 10.7334 40.809 10.6125 41.0725 10.5516C41.3282 10.4924 41.714 10.4891 42.4531 10.4891C43.1487 10.4891 43.5369 10.4963 43.7915 10.5476C43.9206 10.5736 44.0175 10.6112 44.1039 10.6659C44.1893 10.7199 44.2621 10.7893 44.3441 10.8749C44.838 11.354 44.8534 12.1121 44.3896 12.6069L44.3893 12.6071C44.3142 12.686 44.2455 12.7503 44.1608 12.8005C44.0758 12.8509 43.9775 12.8855 43.8443 12.9095C43.581 12.9568 43.1712 12.9641 42.4383 12.9641C41.9926 12.9641 41.6344 12.9548 41.3456 12.9274C41.057 12.9001 40.8344 12.8544 40.6614 12.78C40.4869 12.705 40.3632 12.6008 40.2732 12.4586C40.184 12.3179 40.1297 12.1428 40.0884 11.929L40.0884 11.929L40.0883 11.9286C40.0507 11.7253 40.045 11.5769 40.102 11.4285C40.1579 11.2826 40.2723 11.1425 40.4577 10.9497Z" fill="#FCE301" stroke="#FCE301" stroke-width="0.1"/>
<path d="M47.9711 10.6411L47.9711 10.6411L47.9718 10.6409C48.2106 10.5484 48.5965 10.5039 48.9716 10.5058C49.3458 10.5076 49.7222 10.5557 49.9403 10.6569C50.6989 10.9977 50.8853 11.9891 50.2816 12.5781C50.1298 12.7374 49.9965 12.8364 49.7999 12.8934C49.6066 12.9495 49.355 12.9641 48.9695 12.9641C48.591 12.9641 48.3367 12.9494 48.1408 12.8994C47.9416 12.8487 47.8045 12.762 47.6586 12.6238C47.3623 12.3431 47.2593 11.921 47.3188 11.5352C47.3783 11.1496 47.6019 10.7904 47.9711 10.6411Z" fill="#FCE301" stroke="#FCE301" stroke-width="0.1"/>
<mask id="path-6-outside-1_209_16" maskUnits="userSpaceOnUse" x="19.9136" y="19.8867" width="36" height="37" fill="black">
<rect fill="white" x="19.9136" y="19.8867" width="36" height="37"/>
<path d="M34.2742 20.4695C33.2649 21.1078 33.0422 21.6719 32.9828 23.8688L32.9235 25.6945L32.3 26.0063C31.9735 26.1695 31.2758 26.5852 30.7711 26.8969L29.8508 27.4758L28.3367 26.6297C26.5258 25.6055 25.7688 25.4719 24.7149 25.9766C23.943 26.3477 23.7352 26.6297 22.043 29.5836C20.9 31.5875 20.7367 32.2555 21.1375 33.3242C21.4492 34.1109 21.8649 34.482 23.5274 35.432L24.7891 36.1445V38V39.8555L23.7203 40.4492C22.0875 41.3695 21.5235 41.8148 21.2117 42.4977C20.618 43.8039 20.7813 44.3086 22.9039 47.9008C24.0914 49.8898 24.5367 50.2461 25.9024 50.2461C26.7188 50.2461 26.9266 50.1719 28.3219 49.3852L29.8508 48.5242L30.7711 49.1031C31.2758 49.4148 31.9735 49.8305 32.3 49.9938L32.9235 50.3055L32.9828 52.1313C33.0422 54.2688 33.2649 54.8773 34.1852 55.4859L34.7938 55.8867H38H41.2063L41.8149 55.4859C42.7352 54.8773 42.9578 54.2688 43.0172 52.1313L43.0766 50.3055L43.7 49.9938C44.0266 49.8305 44.7242 49.4148 45.2289 49.1031L46.1492 48.5242L47.6633 49.3703C49.4742 50.3945 50.2313 50.5281 51.2852 50.0234C52.0571 49.6523 52.2649 49.3703 53.9571 46.4164C55.1 44.4125 55.2633 43.7445 54.8625 42.6758C54.5508 41.8891 54.1352 41.518 52.4727 40.568L51.211 39.8555V38V36.1445L52.4727 35.432C54.1352 34.482 54.5508 34.1109 54.8625 33.3242C55.2633 32.2555 55.1 31.5875 53.9571 29.5836C52.2649 26.6297 52.0571 26.3477 51.2852 25.9766C50.2313 25.4719 49.4742 25.6055 47.6633 26.6297L46.1492 27.4758L45.2289 26.8969C44.7242 26.5852 44.0266 26.1695 43.7 26.0063L43.0766 25.6945L43.0172 23.8688C42.9578 21.6719 42.7352 21.1078 41.7258 20.4695L41.0578 20.0391H38H34.9422L34.2742 20.4695ZM40.5828 22.6516C40.6274 22.7852 40.6719 23.6016 40.6719 24.4922C40.6719 25.3828 40.7461 26.2883 40.8352 26.5258C41.0727 27.1641 41.6961 27.743 42.661 28.2328C43.1508 28.4703 43.9078 28.9156 44.3532 29.2125C45.0953 29.7023 45.2735 29.7617 46.1492 29.7617C47.0696 29.7617 47.2032 29.7172 48.5688 28.9008C49.3555 28.4406 50.068 28.0547 50.1422 28.0547C50.2907 28.0547 52.6953 32.1219 52.6953 32.3594C52.6953 32.4336 51.9828 32.9086 51.1219 33.4281C48.8805 34.7641 48.836 34.8531 48.836 38C48.836 41.1469 48.8805 41.2359 51.1219 42.5719C51.9828 43.0914 52.6953 43.5664 52.6953 43.6406C52.6953 43.8781 50.2907 47.9453 50.1422 47.9453C50.068 47.9453 49.3555 47.5594 48.5688 47.0844C47.2032 46.2828 47.0696 46.2383 46.1492 46.2383C45.2735 46.2383 45.0953 46.2977 44.3532 46.7875C43.9078 47.0844 43.1508 47.5297 42.661 47.7672C41.6961 48.257 41.0727 48.8359 40.8352 49.4742C40.7461 49.7117 40.6719 50.6172 40.6719 51.5078C40.6719 52.3984 40.6274 53.2148 40.5828 53.3484C40.5086 53.5563 40.1375 53.5859 38 53.5859C35.8625 53.5859 35.4914 53.5563 35.4172 53.3484C35.3727 53.2148 35.3281 52.3984 35.3281 51.5078C35.3281 50.6172 35.2539 49.7117 35.1649 49.4742C34.9274 48.8359 34.3039 48.257 33.3391 47.7672C32.8492 47.5297 32.0922 47.0844 31.6469 46.7875C30.9047 46.2977 30.7266 46.2383 29.8508 46.2383C28.9305 46.2383 28.7969 46.2828 27.4313 47.0992C26.6446 47.5594 25.9321 47.9453 25.8578 47.9453C25.7242 47.9453 23.3047 43.8633 23.3047 43.6258C23.3047 43.5664 24.0172 43.0914 24.8781 42.5719C27.1196 41.2359 27.1641 41.1469 27.1641 38C27.1641 34.8531 27.1196 34.7641 24.8781 33.4281C24.0172 32.9086 23.3047 32.4336 23.3047 32.3742C23.3047 32.1367 25.7242 28.0547 25.8578 28.0547C25.9321 28.0547 26.6446 28.4406 27.4313 28.9008C28.7969 29.7172 28.9305 29.7617 29.8508 29.7617C30.7266 29.7617 30.9047 29.7023 31.6469 29.2125C32.0922 28.9156 32.8492 28.4703 33.3391 28.2328C34.3039 27.743 34.9274 27.1641 35.1649 26.5258C35.2539 26.2883 35.3281 25.3828 35.3281 24.4922C35.3281 23.6016 35.3727 22.7852 35.4172 22.6516C35.4914 22.4438 35.8625 22.4141 38 22.4141C40.1375 22.4141 40.5086 22.4438 40.5828 22.6516Z"/>
</mask>
<path d="M34.2742 20.4695C33.2649 21.1078 33.0422 21.6719 32.9828 23.8688L32.9235 25.6945L32.3 26.0063C31.9735 26.1695 31.2758 26.5852 30.7711 26.8969L29.8508 27.4758L28.3367 26.6297C26.5258 25.6055 25.7688 25.4719 24.7149 25.9766C23.943 26.3477 23.7352 26.6297 22.043 29.5836C20.9 31.5875 20.7367 32.2555 21.1375 33.3242C21.4492 34.1109 21.8649 34.482 23.5274 35.432L24.7891 36.1445V38V39.8555L23.7203 40.4492C22.0875 41.3695 21.5235 41.8148 21.2117 42.4977C20.618 43.8039 20.7813 44.3086 22.9039 47.9008C24.0914 49.8898 24.5367 50.2461 25.9024 50.2461C26.7188 50.2461 26.9266 50.1719 28.3219 49.3852L29.8508 48.5242L30.7711 49.1031C31.2758 49.4148 31.9735 49.8305 32.3 49.9938L32.9235 50.3055L32.9828 52.1313C33.0422 54.2688 33.2649 54.8773 34.1852 55.4859L34.7938 55.8867H38H41.2063L41.8149 55.4859C42.7352 54.8773 42.9578 54.2688 43.0172 52.1313L43.0766 50.3055L43.7 49.9938C44.0266 49.8305 44.7242 49.4148 45.2289 49.1031L46.1492 48.5242L47.6633 49.3703C49.4742 50.3945 50.2313 50.5281 51.2852 50.0234C52.0571 49.6523 52.2649 49.3703 53.9571 46.4164C55.1 44.4125 55.2633 43.7445 54.8625 42.6758C54.5508 41.8891 54.1352 41.518 52.4727 40.568L51.211 39.8555V38V36.1445L52.4727 35.432C54.1352 34.482 54.5508 34.1109 54.8625 33.3242C55.2633 32.2555 55.1 31.5875 53.9571 29.5836C52.2649 26.6297 52.0571 26.3477 51.2852 25.9766C50.2313 25.4719 49.4742 25.6055 47.6633 26.6297L46.1492 27.4758L45.2289 26.8969C44.7242 26.5852 44.0266 26.1695 43.7 26.0063L43.0766 25.6945L43.0172 23.8688C42.9578 21.6719 42.7352 21.1078 41.7258 20.4695L41.0578 20.0391H38H34.9422L34.2742 20.4695ZM40.5828 22.6516C40.6274 22.7852 40.6719 23.6016 40.6719 24.4922C40.6719 25.3828 40.7461 26.2883 40.8352 26.5258C41.0727 27.1641 41.6961 27.743 42.661 28.2328C43.1508 28.4703 43.9078 28.9156 44.3532 29.2125C45.0953 29.7023 45.2735 29.7617 46.1492 29.7617C47.0696 29.7617 47.2032 29.7172 48.5688 28.9008C49.3555 28.4406 50.068 28.0547 50.1422 28.0547C50.2907 28.0547 52.6953 32.1219 52.6953 32.3594C52.6953 32.4336 51.9828 32.9086 51.1219 33.4281C48.8805 34.7641 48.836 34.8531 48.836 38C48.836 41.1469 48.8805 41.2359 51.1219 42.5719C51.9828 43.0914 52.6953 43.5664 52.6953 43.6406C52.6953 43.8781 50.2907 47.9453 50.1422 47.9453C50.068 47.9453 49.3555 47.5594 48.5688 47.0844C47.2032 46.2828 47.0696 46.2383 46.1492 46.2383C45.2735 46.2383 45.0953 46.2977 44.3532 46.7875C43.9078 47.0844 43.1508 47.5297 42.661 47.7672C41.6961 48.257 41.0727 48.8359 40.8352 49.4742C40.7461 49.7117 40.6719 50.6172 40.6719 51.5078C40.6719 52.3984 40.6274 53.2148 40.5828 53.3484C40.5086 53.5563 40.1375 53.5859 38 53.5859C35.8625 53.5859 35.4914 53.5563 35.4172 53.3484C35.3727 53.2148 35.3281 52.3984 35.3281 51.5078C35.3281 50.6172 35.2539 49.7117 35.1649 49.4742C34.9274 48.8359 34.3039 48.257 33.3391 47.7672C32.8492 47.5297 32.0922 47.0844 31.6469 46.7875C30.9047 46.2977 30.7266 46.2383 29.8508 46.2383C28.9305 46.2383 28.7969 46.2828 27.4313 47.0992C26.6446 47.5594 25.9321 47.9453 25.8578 47.9453C25.7242 47.9453 23.3047 43.8633 23.3047 43.6258C23.3047 43.5664 24.0172 43.0914 24.8781 42.5719C27.1196 41.2359 27.1641 41.1469 27.1641 38C27.1641 34.8531 27.1196 34.7641 24.8781 33.4281C24.0172 32.9086 23.3047 32.4336 23.3047 32.3742C23.3047 32.1367 25.7242 28.0547 25.8578 28.0547C25.9321 28.0547 26.6446 28.4406 27.4313 28.9008C28.7969 29.7172 28.9305 29.7617 29.8508 29.7617C30.7266 29.7617 30.9047 29.7023 31.6469 29.2125C32.0922 28.9156 32.8492 28.4703 33.3391 28.2328C34.3039 27.743 34.9274 27.1641 35.1649 26.5258C35.2539 26.2883 35.3281 25.3828 35.3281 24.4922C35.3281 23.6016 35.3727 22.7852 35.4172 22.6516C35.4914 22.4438 35.8625 22.4141 38 22.4141C40.1375 22.4141 40.5086 22.4438 40.5828 22.6516Z" fill="#FCE301"/>
<path d="M34.2742 20.4695C33.2649 21.1078 33.0422 21.6719 32.9828 23.8688L32.9235 25.6945L32.3 26.0063C31.9735 26.1695 31.2758 26.5852 30.7711 26.8969L29.8508 27.4758L28.3367 26.6297C26.5258 25.6055 25.7688 25.4719 24.7149 25.9766C23.943 26.3477 23.7352 26.6297 22.043 29.5836C20.9 31.5875 20.7367 32.2555 21.1375 33.3242C21.4492 34.1109 21.8649 34.482 23.5274 35.432L24.7891 36.1445V38V39.8555L23.7203 40.4492C22.0875 41.3695 21.5235 41.8148 21.2117 42.4977C20.618 43.8039 20.7813 44.3086 22.9039 47.9008C24.0914 49.8898 24.5367 50.2461 25.9024 50.2461C26.7188 50.2461 26.9266 50.1719 28.3219 49.3852L29.8508 48.5242L30.7711 49.1031C31.2758 49.4148 31.9735 49.8305 32.3 49.9938L32.9235 50.3055L32.9828 52.1313C33.0422 54.2688 33.2649 54.8773 34.1852 55.4859L34.7938 55.8867H38H41.2063L41.8149 55.4859C42.7352 54.8773 42.9578 54.2688 43.0172 52.1313L43.0766 50.3055L43.7 49.9938C44.0266 49.8305 44.7242 49.4148 45.2289 49.1031L46.1492 48.5242L47.6633 49.3703C49.4742 50.3945 50.2313 50.5281 51.2852 50.0234C52.0571 49.6523 52.2649 49.3703 53.9571 46.4164C55.1 44.4125 55.2633 43.7445 54.8625 42.6758C54.5508 41.8891 54.1352 41.518 52.4727 40.568L51.211 39.8555V38V36.1445L52.4727 35.432C54.1352 34.482 54.5508 34.1109 54.8625 33.3242C55.2633 32.2555 55.1 31.5875 53.9571 29.5836C52.2649 26.6297 52.0571 26.3477 51.2852 25.9766C50.2313 25.4719 49.4742 25.6055 47.6633 26.6297L46.1492 27.4758L45.2289 26.8969C44.7242 26.5852 44.0266 26.1695 43.7 26.0063L43.0766 25.6945L43.0172 23.8688C42.9578 21.6719 42.7352 21.1078 41.7258 20.4695L41.0578 20.0391H38H34.9422L34.2742 20.4695ZM40.5828 22.6516C40.6274 22.7852 40.6719 23.6016 40.6719 24.4922C40.6719 25.3828 40.7461 26.2883 40.8352 26.5258C41.0727 27.1641 41.6961 27.743 42.661 28.2328C43.1508 28.4703 43.9078 28.9156 44.3532 29.2125C45.0953 29.7023 45.2735 29.7617 46.1492 29.7617C47.0696 29.7617 47.2032 29.7172 48.5688 28.9008C49.3555 28.4406 50.068 28.0547 50.1422 28.0547C50.2907 28.0547 52.6953 32.1219 52.6953 32.3594C52.6953 32.4336 51.9828 32.9086 51.1219 33.4281C48.8805 34.7641 48.836 34.8531 48.836 38C48.836 41.1469 48.8805 41.2359 51.1219 42.5719C51.9828 43.0914 52.6953 43.5664 52.6953 43.6406C52.6953 43.8781 50.2907 47.9453 50.1422 47.9453C50.068 47.9453 49.3555 47.5594 48.5688 47.0844C47.2032 46.2828 47.0696 46.2383 46.1492 46.2383C45.2735 46.2383 45.0953 46.2977 44.3532 46.7875C43.9078 47.0844 43.1508 47.5297 42.661 47.7672C41.6961 48.257 41.0727 48.8359 40.8352 49.4742C40.7461 49.7117 40.6719 50.6172 40.6719 51.5078C40.6719 52.3984 40.6274 53.2148 40.5828 53.3484C40.5086 53.5563 40.1375 53.5859 38 53.5859C35.8625 53.5859 35.4914 53.5563 35.4172 53.3484C35.3727 53.2148 35.3281 52.3984 35.3281 51.5078C35.3281 50.6172 35.2539 49.7117 35.1649 49.4742C34.9274 48.8359 34.3039 48.257 33.3391 47.7672C32.8492 47.5297 32.0922 47.0844 31.6469 46.7875C30.9047 46.2977 30.7266 46.2383 29.8508 46.2383C28.9305 46.2383 28.7969 46.2828 27.4313 47.0992C26.6446 47.5594 25.9321 47.9453 25.8578 47.9453C25.7242 47.9453 23.3047 43.8633 23.3047 43.6258C23.3047 43.5664 24.0172 43.0914 24.8781 42.5719C27.1196 41.2359 27.1641 41.1469 27.1641 38C27.1641 34.8531 27.1196 34.7641 24.8781 33.4281C24.0172 32.9086 23.3047 32.4336 23.3047 32.3742C23.3047 32.1367 25.7242 28.0547 25.8578 28.0547C25.9321 28.0547 26.6446 28.4406 27.4313 28.9008C28.7969 29.7172 28.9305 29.7617 29.8508 29.7617C30.7266 29.7617 30.9047 29.7023 31.6469 29.2125C32.0922 28.9156 32.8492 28.4703 33.3391 28.2328C34.3039 27.743 34.9274 27.1641 35.1649 26.5258C35.2539 26.2883 35.3281 25.3828 35.3281 24.4922C35.3281 23.6016 35.3727 22.7852 35.4172 22.6516C35.4914 22.4438 35.8625 22.4141 38 22.4141C40.1375 22.4141 40.5086 22.4438 40.5828 22.6516Z" stroke="#FCE301" stroke-width="0.2" mask="url(#path-6-outside-1_209_16)"/>
<path d="M35.7006 29.5651L35.7011 29.565C36.205 29.4296 37.0863 29.3629 37.9647 29.3629C38.8432 29.3629 39.7281 29.4296 40.2393 29.5649L40.2395 29.565C41.7479 29.9682 42.9281 30.6707 44.1359 31.8636L44.1361 31.8639C45.0303 32.758 45.6617 33.6503 46.0693 34.6411C46.4768 35.6319 46.6594 36.7186 46.6594 38C46.6594 39.2814 46.4768 40.3681 46.0693 41.3589C45.6617 42.3497 45.0303 43.242 44.1361 44.1361C43.2419 45.0303 42.3497 45.6617 41.3588 46.0693C40.368 46.4768 39.2814 46.6594 38 46.6594C36.7185 46.6594 35.6319 46.4768 34.6411 46.0693C33.6503 45.6617 32.758 45.0303 31.8638 44.1361L31.8636 44.1359C30.6707 42.9281 29.9682 41.748 29.565 40.2395C29.4222 39.7061 29.3517 38.8511 29.3517 38C29.3517 37.1489 29.4222 36.2939 29.5649 35.7606C30.3414 32.8488 32.804 30.3714 35.7006 29.5651ZM40.5762 32.3303L40.5757 32.3301C39.9904 32.0447 39.1406 31.8748 38.2851 31.8323C37.4296 31.7898 36.5762 31.8751 35.9838 32.0945C34.4377 32.6688 33.052 33.9362 32.3004 35.4836L32.3004 35.4836L32.3 35.4844C32.1078 35.8613 32.0067 36.1008 31.9523 36.4382C31.8974 36.7786 31.8898 37.2195 31.8898 38C31.8898 38.7954 31.8974 39.2325 31.9541 39.5745C32.0104 39.914 32.1152 40.161 32.3153 40.5758C32.5941 41.1482 33.0837 41.7857 33.649 42.351C34.2143 42.9162 34.8518 43.4058 35.4241 43.6847C35.839 43.8847 36.086 43.9896 36.4254 44.0459C36.7675 44.1026 37.2046 44.1102 38 44.1102C38.7954 44.1102 39.2324 44.1026 39.5745 44.0459C39.914 43.9896 40.161 43.8847 40.5759 43.6847C41.1482 43.4058 41.7857 42.9162 42.351 42.351C42.9162 41.7857 43.4058 41.1482 43.6847 40.5758C43.8847 40.1609 43.9896 39.914 44.0459 39.5745C44.1026 39.2325 44.1101 38.7954 44.1101 38C44.1101 37.2046 44.1026 36.7675 44.0459 36.4255C43.9896 36.086 43.8847 35.8391 43.6847 35.4243C43.3984 34.8443 42.9087 34.2068 42.3454 33.6454C41.7821 33.0838 41.1484 32.6017 40.5762 32.3303Z" fill="#FCE301" stroke="#FCE301" stroke-width="0.1"/>
<path d="M36.2578 41.7715L36.2575 41.7714C34.7986 41.1096 33.9125 39.6808 33.9125 38C33.9125 36.3193 34.7985 34.8906 36.2573 34.2288C36.6824 34.0315 37.2252 33.9422 38 33.9422C38.6642 33.9422 39.1867 34.0168 39.6491 34.1961C40.1117 34.3755 40.5107 34.6584 40.9296 35.0698L40.9299 35.0702C41.7417 35.882 42.0875 36.7709 42.0875 38C42.0875 39.6808 41.2014 41.1096 39.7426 41.7714L39.7423 41.7715C39.3173 41.9612 38.6559 42.0542 38 42.0542C37.3441 42.0542 36.6828 41.9612 36.2578 41.7715ZM39.5828 38C39.5828 37.7503 39.5607 37.5804 39.4907 37.4229C39.4203 37.2646 39.2996 37.1141 39.0928 36.9073C38.886 36.7005 38.7355 36.5798 38.5772 36.5094C38.4197 36.4394 38.2498 36.4172 38 36.4172C37.7503 36.4172 37.5804 36.4394 37.4229 36.5094C37.2646 36.5798 37.114 36.7005 36.9073 36.9073C36.7005 37.1141 36.5797 37.2646 36.5094 37.4229C36.4394 37.5804 36.4172 37.7503 36.4172 38C36.4172 38.2498 36.4394 38.4197 36.5094 38.5772C36.5797 38.7355 36.7005 38.886 36.9073 39.0928C37.114 39.2996 37.2646 39.4203 37.4229 39.4907C37.5804 39.5607 37.7503 39.5829 38 39.5829C38.2498 39.5829 38.4197 39.5607 38.5772 39.4907C38.7355 39.4203 38.886 39.2996 39.0928 39.0928C39.2996 38.886 39.4203 38.7355 39.4907 38.5772C39.5607 38.4197 39.5828 38.2498 39.5828 38Z" fill="#FCE301" stroke="#FCE301" stroke-width="0.1"/>
<path d="M10.519 27.3472L10.519 27.3472L10.5189 27.3463C10.4814 26.8964 10.5186 26.4995 10.6253 26.185C10.732 25.8707 10.9097 25.635 11.1552 25.5161C11.4291 25.3792 11.688 25.3278 11.9286 25.363C12.1693 25.3983 12.3866 25.5194 12.5782 25.7185C12.7375 25.8702 12.8364 26.0036 12.8934 26.2001C12.9494 26.3934 12.964 26.645 12.964 27.0305C12.964 27.5902 12.8786 28.0073 12.6861 28.2854C12.4908 28.5675 12.1912 28.6984 11.7859 28.6984C11.4051 28.6984 11.1082 28.5915 10.8958 28.3634C10.6849 28.1368 10.564 27.7977 10.519 27.3472Z" fill="#FCE301" stroke="#FCE301" stroke-width="0.1"/>
<path d="M12.6069 31.6095L12.6071 31.6098C12.686 31.6849 12.7503 31.7537 12.8005 31.8383C12.8509 31.9233 12.8855 32.0217 12.9095 32.1548C12.9568 32.4182 12.9641 32.8279 12.9641 33.5609C12.9641 34.2208 12.953 34.6363 12.9116 34.9225C12.8698 35.2113 12.7965 35.3727 12.6707 35.5222C12.2468 36.0552 11.3341 36.0174 10.8574 35.4489C10.6908 35.2596 10.596 35.1181 10.5456 34.8504C10.4963 34.5887 10.4891 34.2048 10.4891 33.5312C10.4891 32.843 10.4962 32.4586 10.5476 32.2057C10.5736 32.0775 10.6113 31.9811 10.6659 31.895C10.72 31.8099 10.7893 31.737 10.8749 31.6551C11.354 31.1612 12.1121 31.1457 12.6069 31.6095Z" fill="#FCE301" stroke="#FCE301" stroke-width="0.1"/>
<path d="M63.0359 35.9073C63.0359 35.5288 63.0506 35.2745 63.1006 35.0785C63.1513 34.8795 63.238 34.7423 63.3761 34.5964C63.8425 34.0991 64.632 34.1172 65.125 34.6249C65.2767 34.7691 65.3751 34.9018 65.4341 35.0768C65.4925 35.25 65.5109 35.461 65.5109 35.7589C65.5109 36.6685 65.3024 37.2014 64.7842 37.4371C64.5048 37.5654 64.2643 37.6176 64.0411 37.5821C63.8175 37.5464 63.6191 37.4241 63.4218 37.2193C63.2625 37.0675 63.1636 36.9342 63.1066 36.7376C63.0505 36.5444 63.0359 36.2928 63.0359 35.9073Z" fill="#FCE301" stroke="#FCE301" stroke-width="0.1"/>
<path d="M10.519 40.4097L10.519 40.4097L10.5189 40.4088C10.4814 39.9589 10.5186 39.562 10.6253 39.2475C10.732 38.9332 10.9097 38.6975 11.1552 38.5786C11.4291 38.4417 11.688 38.3903 11.9286 38.4255C12.1693 38.4608 12.3866 38.5819 12.5782 38.781C12.7375 38.9327 12.8364 39.0661 12.8934 39.2626C12.9494 39.4559 12.964 39.7075 12.964 40.093C12.964 40.6527 12.8786 41.0698 12.6861 41.3479C12.4908 41.63 12.1912 41.7609 11.7859 41.7609C11.4051 41.7609 11.1082 41.654 10.8958 41.4259C10.6849 41.1993 10.564 40.8602 10.519 40.4097Z" fill="#FCE301" stroke="#FCE301" stroke-width="0.1"/>
<path d="M63.3931 44.389L63.3931 44.389L63.3929 44.3888C63.314 44.3136 63.2498 44.245 63.1996 44.1614C63.1492 44.0774 63.1146 43.981 63.0906 43.8514C63.0432 43.5954 63.0359 43.2003 63.0359 42.4971C63.0359 41.6743 63.0653 41.1516 63.1621 40.8081C63.2109 40.635 63.2774 40.5046 63.3681 40.4035C63.4588 40.3023 63.5708 40.2335 63.7055 40.1796C64.2029 39.9777 64.7737 40.1349 65.1715 40.5784C65.2471 40.6616 65.3077 40.7395 65.3551 40.8309C65.4025 40.9225 65.4353 41.0255 65.4583 41.1582C65.5037 41.4213 65.5109 41.8084 65.5109 42.4674C65.5109 43.1556 65.5038 43.54 65.4524 43.7929C65.4264 43.9211 65.3887 44.0175 65.3341 44.1036C65.28 44.1887 65.2107 44.2616 65.1251 44.3435C64.646 44.8374 63.8879 44.8529 63.3931 44.389Z" fill="#FCE301" stroke="#FCE301" stroke-width="0.1"/>
<path d="M9.30234 54.7722C9.16057 54.8543 9.04008 54.9186 8.89101 54.9675C8.74207 55.0164 8.5668 55.0494 8.31509 55.0719C7.81316 55.1167 6.9976 55.1203 5.4625 55.1203H2.27656V64.1844C2.27656 68.2296 2.28399 70.5147 2.31737 71.8146C2.33406 72.4649 2.35722 72.8667 2.38889 73.1185C2.40473 73.2444 2.42246 73.3307 2.4418 73.391C2.46108 73.4511 2.48102 73.4822 2.49942 73.5006C2.57682 73.578 2.70446 73.6353 2.96278 73.672C3.22057 73.7085 3.59965 73.7234 4.17109 73.7234C4.80838 73.7234 5.19134 73.7344 5.44678 73.778C5.57539 73.7999 5.67382 73.8303 5.75729 73.8729C5.84102 73.9157 5.90734 73.9694 5.97286 74.035C6.18503 74.2471 6.28809 74.5693 6.28809 74.8867C6.28809 75.2041 6.18503 75.5263 5.97286 75.7385C5.90365 75.8077 5.83493 75.8639 5.74132 75.9075C5.64841 75.9509 5.53384 75.9806 5.37433 76.0013C5.05679 76.0427 4.54831 76.05 3.65156 76.05C2.74741 76.05 2.23875 76.0427 1.89873 75.9957C1.55367 75.9481 1.37953 75.8591 1.14477 75.7001C0.872144 75.5183 0.481687 75.1278 0.299894 74.8552C0.299864 74.8552 0.299834 74.8551 0.299804 74.8551L-0.0414142 74.3507L-0.05 74.338V74.3227V63.8133V53.3039V53.2793L-0.0304855 53.2643L0.354703 52.968C0.354845 52.9679 0.354987 52.9678 0.355129 52.9676C0.449992 52.8918 0.537667 52.8314 0.671533 52.7858C0.80393 52.7406 0.979138 52.7105 1.24865 52.69C1.78728 52.649 2.71751 52.6453 4.46797 52.6453C5.64034 52.6453 6.56359 52.6305 7.19345 52.6045C7.50856 52.5916 7.74932 52.5758 7.91085 52.5579C7.99194 52.549 8.05127 52.5396 8.08957 52.5303C8.09651 52.5286 8.1024 52.5269 8.10735 52.5254C8.10715 52.5249 8.10695 52.5244 8.10674 52.5239C8.1006 52.5082 8.09111 52.4879 8.07819 52.463C8.05242 52.4135 8.01473 52.3494 7.96775 52.2748C7.87396 52.1258 7.74489 51.9377 7.60445 51.7455C5.68476 49.2254 6.77915 45.3431 9.73372 44.188C10.2171 43.9916 10.8477 43.9024 11.6514 43.8875H11.6523C12.1573 43.8875 12.4919 43.9023 12.7958 43.9627C13.1004 44.0232 13.3719 44.1291 13.7518 44.3079L13.752 44.308C15.4464 45.1177 16.3919 46.5445 16.4968 48.4918L16.4968 48.4919C16.5341 49.2074 16.497 49.7736 16.3522 50.2947C16.2072 50.8162 15.9552 51.2892 15.5669 51.8194L15.5667 51.8196C15.4192 52.0188 15.2983 52.2059 15.2219 52.3495C15.1835 52.4217 15.1574 52.481 15.1445 52.5243C15.139 52.5426 15.1364 52.5563 15.1356 52.5659C15.149 52.5682 15.1681 52.5706 15.1931 52.5731C15.2468 52.5785 15.3242 52.5838 15.423 52.589C15.6203 52.5994 15.9009 52.6091 16.244 52.6175C16.93 52.6342 17.8648 52.6453 18.8813 52.6453H22.5773H22.5987L22.6134 52.6607L22.969 53.031L23.3393 53.3866L23.3547 53.4013V53.4227V57.3711C23.3547 59.5361 23.3437 60.6954 23.2279 61.4C23.1697 61.7539 23.0845 61.997 22.9587 62.1967C22.8333 62.3959 22.6695 62.5485 22.4611 62.7235L22.461 62.7235C21.432 63.5861 19.951 63.569 18.8357 62.6949C18.4352 62.3834 18.1615 62.198 17.8957 62.0895C17.6314 61.9816 17.3715 61.9484 16.9961 61.9484C15.8472 61.9484 14.9015 62.6891 14.5952 63.8557L14.5951 63.856C14.2037 65.3057 15.4674 66.8805 17.0408 66.8953C17.2751 66.8953 17.6569 66.7837 18.0062 66.634C18.1798 66.5596 18.3431 66.4768 18.4733 66.3956C18.6044 66.314 18.6954 66.238 18.734 66.1781C18.7509 66.1462 18.7857 66.1126 18.8249 66.0803C18.8673 66.0455 18.9218 66.0068 18.9838 65.9664C19.108 65.8855 19.2653 65.7956 19.4221 65.7135L19.4227 65.7132C20.7066 65.0637 22.3703 65.545 23.0076 66.7588L23.0078 66.7593C23.0896 66.9192 23.1536 67.0507 23.2024 67.2167C23.251 67.3826 23.2839 67.5807 23.3063 67.8748C23.351 68.4617 23.3547 69.4402 23.3547 71.3242C23.3547 73.1786 23.351 74.1607 23.31 74.7252C23.2895 75.0076 23.2595 75.1892 23.2144 75.3249C23.1687 75.4621 23.1083 75.5499 23.0324 75.6449C23.0322 75.645 23.0321 75.6452 23.032 75.6453L22.7357 76.0305L22.7207 76.05H22.6961H16.1797H9.66328H9.63866L9.62365 76.0305L9.32725 75.6452C9.32717 75.6451 9.32709 75.6449 9.327 75.6448C9.12252 75.3872 9.01582 75.1392 9.01582 74.8867C9.01582 74.6343 9.12251 74.3862 9.327 74.1286C9.32708 74.1285 9.32717 74.1284 9.32725 74.1283L9.62365 73.743L9.63866 73.7234H9.66328H15.3039H20.8797V70.8047C20.8797 69.8699 20.8648 69.1287 20.8389 68.6215C20.826 68.3677 20.8103 68.1736 20.7925 68.0436C20.7835 67.9782 20.7743 67.9311 20.7653 67.9012C20.7643 67.8977 20.7632 67.8945 20.7623 67.8917C20.761 67.8922 20.7597 67.8927 20.7583 67.8933C20.7426 67.8994 20.7222 67.9089 20.6974 67.9218C20.6479 67.9476 20.5838 67.9853 20.5092 68.0323C20.3603 68.126 20.1722 68.255 19.9801 68.3954C18.6438 69.431 16.4865 69.6554 14.9411 68.9202C11.1034 67.1211 11.0877 61.7082 14.8966 59.9087C15.2689 59.73 15.5439 59.6205 15.8445 59.5562C16.1448 59.492 16.4683 59.4734 16.9367 59.4734C18.2816 59.4734 19.1391 59.7431 20.0399 60.4486C20.2238 60.5884 20.4034 60.7056 20.5436 60.7821C20.6139 60.8204 20.6728 60.8477 20.7165 60.8626C20.7377 60.8699 20.7534 60.8735 20.7641 60.8747C20.7671 60.8654 20.7705 60.852 20.7741 60.8338C20.7824 60.7922 20.7906 60.732 20.7985 60.6544C20.8144 60.4994 20.8287 60.2797 20.8408 60.011C20.8649 59.4739 20.8797 58.7436 20.8797 57.95V55.1203H17.8125C16.1073 55.1203 15.1593 55.102 14.5488 54.9877C14.242 54.9303 14.018 54.8483 13.8247 54.7311C13.6319 54.6141 13.4723 54.4635 13.2933 54.2733L13.2928 54.2728C13.0486 54.0057 12.8563 53.6196 12.7416 53.2136C12.6271 52.8079 12.5886 52.3771 12.657 52.0187C12.6808 51.8691 12.7807 51.6257 12.9157 51.3556C13.0521 51.0829 13.2274 50.777 13.4065 50.5009L13.4068 50.5004C13.6889 50.0772 13.8491 49.807 13.9396 49.5609C14.0294 49.3166 14.0516 49.0933 14.0516 48.7617C14.0516 46.1461 10.5475 45.3699 9.39661 47.7592L9.39657 47.7593C9.17726 48.2125 9.09072 48.6522 9.13595 49.0755C9.18115 49.4986 9.35832 49.909 9.67216 50.3033M9.30234 54.7722C9.30236 54.7722 9.30238 54.7722 9.3024 54.7722L9.27734 54.7289M9.30234 54.7722C9.30223 54.7723 9.30213 54.7723 9.30202 54.7724L9.27734 54.7289M9.30234 54.7722C10.4242 54.1353 10.891 52.653 10.3774 51.4144L10.3773 51.4142C10.2564 51.1271 9.94221 50.6186 9.67216 50.3033M9.27734 54.7289C8.71328 55.0555 8.53516 55.0703 5.4625 55.0703H2.27656L9.27734 54.7289ZM9.67216 50.3033C9.67196 50.3031 9.67176 50.3029 9.67156 50.3026L9.63359 50.3352L9.67271 50.304C9.67253 50.3038 9.67235 50.3036 9.67216 50.3033Z" fill="#FCE301" stroke="#FCE301" stroke-width="0.1"/>
<path d="M65.3738 49.8791L65.3738 49.8791L65.3735 49.8797C65.0339 50.698 64.0269 50.9017 63.4219 50.2821C63.2626 50.1302 63.1636 49.9969 63.1066 49.8003C63.0505 49.607 63.0359 49.3554 63.0359 48.9699C63.0359 48.5915 63.0506 48.3371 63.1006 48.1412C63.1513 47.9421 63.2379 47.805 63.376 47.6592C63.5794 47.4403 63.8782 47.3211 64.1837 47.3057C64.4894 47.2904 64.8064 47.3786 65.0475 47.5806C65.1571 47.6701 65.2473 47.8182 65.3174 47.9947C65.3881 48.1725 65.4404 48.3838 65.4715 48.6049C65.5334 49.0456 65.5118 49.534 65.3738 49.8791Z" fill="#FCE301" stroke="#FCE301" stroke-width="0.1"/>
<path d="M65.8023 54.0312C65.2086 55.1891 65.3718 56.1242 66.4257 57.5789C67.7617 59.4047 66.0101 62.032 63.8281 61.4531C62.6554 61.1414 61.8984 60.1766 61.8984 59.0039C61.8984 58.2469 62.032 57.9352 62.6554 57.1336C63.5164 56.0352 63.5312 54.5805 62.6851 53.5711C61.9875 52.7398 61.7054 52.6953 57.3711 52.6953H53.4226L53.0664 53.0664M65.8023 54.0312L65.7573 54.0095C65.7574 54.0093 65.7574 54.0092 65.7575 54.009M65.8023 54.0312L65.7578 54.0084C65.7577 54.0086 65.7576 54.0088 65.7575 54.009M65.8023 54.0312C66.025 53.5711 66.3218 53.2742 66.782 53.0367C67.4203 52.7102 67.5539 52.6953 71.3242 52.6953C75.0351 52.6953 75.2429 52.7102 75.614 53.007L52.9679 75.6453L53.2642 76.0305L53.2792 76.05H53.3039H63.8132H74.3226H74.3379L74.3506 76.0414L74.855 75.7002C74.8551 75.7002 74.8551 75.7001 74.8552 75.7001C75.1278 75.5183 75.5183 75.1278 75.7001 74.8552C75.7001 74.8551 75.7001 74.8551 75.7002 74.8551L76.0414 74.3507L76.05 74.338V74.3227V63.8133V53.3039V53.2793L76.0304 53.2643L75.6453 52.968C75.6451 52.9679 75.645 52.9678 75.6448 52.9677C75.5499 52.8917 75.4621 52.8313 75.3248 52.7856C75.1892 52.7405 75.0075 52.7105 74.7252 52.69C74.1607 52.649 73.1786 52.6453 71.3242 52.6453C69.4401 52.6453 68.4617 52.649 67.8748 52.6937C67.5807 52.7161 67.3825 52.749 67.2167 52.7976C67.0507 52.8464 66.9191 52.9104 66.7592 52.9922L66.7591 52.9923C66.2899 53.2344 65.9851 53.5389 65.7575 54.009M65.7575 54.009C65.4571 54.5949 65.3463 55.1291 65.4469 55.7024C65.5472 56.2738 65.8566 56.8786 66.3853 57.6082L66.3854 57.6084C67.6946 59.3977 65.9755 61.9711 63.8409 61.4048M63.8409 61.4048L63.8281 61.4529L63.8409 61.4048C63.8409 61.4048 63.8409 61.4048 63.8409 61.4048ZM63.8409 61.4048C62.6893 61.0987 61.9484 60.153 61.9484 59.0039C61.9484 58.6285 61.9816 58.3686 62.0894 58.1043C62.1979 57.8385 62.3833 57.5649 62.6948 57.1644M62.6948 57.1644C62.6948 57.1644 62.6948 57.1644 62.6948 57.1644L62.6556 57.1337L62.6949 57.1643C62.6949 57.1643 62.6948 57.1644 62.6948 57.1644ZM62.6948 57.1644C63.5689 56.0491 63.5861 54.5681 62.7234 53.539L62.7234 53.5389C62.5485 53.3305 62.3959 53.1667 62.1966 53.0413C61.9969 52.9155 61.7538 52.8303 61.4 52.7721C60.6954 52.6563 59.536 52.6453 57.3711 52.6453H53.4226H53.4013L53.3865 52.6607L53.031 53.031M53.031 53.031L53.0317 53.0303L53.0664 53.0664M53.031 53.031L53.0303 53.0318L53.0664 53.0664M53.031 53.031L52.6606 53.3866L52.6453 53.4013V53.4227V57.1187C52.6453 58.1352 52.6341 59.07 52.6175 59.756C52.6091 60.0991 52.5994 60.3797 52.589 60.577C52.5838 60.6758 52.5784 60.7532 52.5731 60.8069C52.5706 60.8319 52.5682 60.851 52.5659 60.8644M53.0664 53.0664L52.6953 53.4227V57.1187C52.6953 59.1523 52.6507 60.8594 52.6062 60.9039C52.5468 60.9633 52.1906 60.7703 51.7898 60.4734C50.7359 59.7016 49.9195 59.4789 48.4945 59.5531C47.0992 59.6273 46.357 59.9391 45.3476 60.8742M52.5659 60.8644C52.5678 60.8645 52.5695 60.8646 52.5711 60.8646C52.5754 60.8647 52.5773 60.8643 52.5775 60.8642C52.5778 60.8641 52.5747 60.8647 52.5709 60.8686C52.5655 60.8739 52.5632 60.8789 52.5629 60.8796C52.5623 60.8809 52.5622 60.8814 52.5625 60.8804C52.5631 60.8785 52.5641 60.8744 52.5653 60.8676C52.5655 60.8665 52.5657 60.8655 52.5659 60.8644ZM52.5659 60.8644C52.5563 60.8636 52.5426 60.861 52.5243 60.8555C52.4809 60.8426 52.4217 60.8165 52.3495 60.7781C52.2058 60.7017 52.0187 60.5808 51.8196 60.4333L51.8193 60.4331C51.2891 60.0448 50.8161 59.7928 50.2947 59.6478C49.7736 59.503 49.2073 59.4659 48.4919 59.5032L48.4918 59.5032C47.791 59.5405 47.2504 59.6376 46.757 59.8447C46.2635 60.0519 45.8207 60.3677 45.3136 60.8375M45.3136 60.8375C45.3137 60.8375 45.3137 60.8375 45.3137 60.8375L45.3476 60.8742M45.3136 60.8375L45.3476 60.8742M45.3136 60.8375C43.9616 62.0845 43.4684 64.3776 44.1728 66.2061M45.3476 60.8742C44.0117 62.1062 43.5218 64.3773 44.2195 66.1883M44.2195 66.1883L44.1728 66.206C44.1728 66.2061 44.1728 66.2061 44.1728 66.2061M44.2195 66.1883C45.3476 69.157 49.207 70.2703 51.7156 68.3555M44.2195 66.1883L44.1728 66.2063C44.1728 66.2062 44.1728 66.2062 44.1728 66.2061M44.1728 66.2061C45.3126 69.2056 49.2101 70.3304 51.7455 68.3955M51.7156 68.3555L51.7451 68.3958C51.7452 68.3957 51.7454 68.3956 51.7455 68.3955M51.7156 68.3555C52.1015 68.0734 52.4726 67.8359 52.5468 67.8359C52.6359 67.8359 52.6953 69.1867 52.6953 71.532C52.6953 75.0352 52.7101 75.243 53.007 75.6141L52.9674 75.6445L52.9676 75.6449C52.8918 75.55 52.8314 75.4623 52.7857 75.3285C52.7405 75.1961 52.7105 75.0209 52.6899 74.7514C52.6489 74.2127 52.6453 73.2825 52.6453 71.532C52.6453 70.3597 52.6304 69.4364 52.6045 68.8065C52.5915 68.4914 52.5758 68.2507 52.5579 68.0891C52.5489 68.0081 52.5396 67.9487 52.5302 67.9104C52.5285 67.9035 52.5269 67.8976 52.5254 67.8927M51.7156 68.3555L51.7459 68.3952C51.7458 68.3953 51.7457 68.3954 51.7455 68.3955M51.7455 68.3955C51.9377 68.2551 52.1258 68.126 52.2747 68.0323C52.3494 67.9853 52.4135 67.9476 52.463 67.9218C52.4878 67.9089 52.5082 67.8994 52.5239 67.8933C52.5244 67.893 52.5249 67.8928 52.5254 67.8927M52.5254 67.8927C52.5227 67.8837 52.5204 67.8778 52.5186 67.8744C52.5172 67.8716 52.5175 67.8731 52.5204 67.8759C52.5235 67.8789 52.5325 67.8859 52.5468 67.8859C52.5476 67.8859 52.5417 67.8864 52.5254 67.8927ZM60.8626 55.2835C60.8698 55.2623 60.8735 55.2466 60.8747 55.2359C60.8654 55.2329 60.8519 55.2295 60.8338 55.2259C60.7922 55.2176 60.732 55.2094 60.6543 55.2015C60.4994 55.1856 60.2797 55.1713 60.011 55.1592C59.4739 55.1351 58.7436 55.1203 57.95 55.1203H55.1203V58.1875C55.1203 59.8927 55.1019 60.8407 54.9877 61.4512C54.9303 61.758 54.8483 61.982 54.731 62.1753C54.614 62.3681 54.4635 62.5277 54.2733 62.7067L54.2728 62.7072C54.0057 62.9514 53.6195 63.1437 53.2135 63.2584C52.8079 63.3729 52.377 63.4114 52.0187 63.343C51.8691 63.3192 51.6257 63.2193 51.3555 63.0843C51.0829 62.9479 50.777 62.7726 50.5009 62.5935L50.5003 62.5932C50.0772 62.3111 49.807 62.1509 49.5608 62.0604C49.3165 61.9706 49.0933 61.9484 48.7617 61.9484C46.1464 61.9484 45.3845 65.4671 47.759 66.6033L47.7592 66.6034C48.2125 66.8227 48.6521 66.9093 49.0755 66.8641C49.4987 66.8188 49.9092 66.6415 50.3037 66.3275C50.7442 65.9691 51.117 65.7388 51.5499 65.5989C51.9822 65.4592 52.4707 65.4109 53.1406 65.4109C53.6808 65.4109 53.9952 65.4218 54.2156 65.4754C54.4417 65.5305 54.5682 65.6304 54.7342 65.7964C54.7343 65.7965 54.7344 65.7966 54.7345 65.7967L55.1049 66.1522L55.1203 66.167V66.1883V69.9883V73.7234H64.1843C68.2295 73.7234 70.5147 73.716 71.8146 73.6826C72.4649 73.6659 72.8667 73.6428 73.1184 73.6111C73.2443 73.5953 73.3307 73.5775 73.3909 73.5582C73.451 73.5389 73.4821 73.519 73.5005 73.5006C73.5189 73.4822 73.5389 73.4511 73.5582 73.391C73.5775 73.3307 73.5952 73.2444 73.6111 73.1185C73.6427 72.8667 73.6659 72.4649 73.6826 71.8146C73.716 70.5147 73.7234 68.2296 73.7234 64.1844V55.1203H70.8046C69.8699 55.1203 69.1286 55.1352 68.6215 55.1611C68.3677 55.174 68.1736 55.1897 68.0435 55.2075C67.9781 55.2165 67.931 55.2257 67.9012 55.2347C67.8976 55.2357 67.8945 55.2368 67.8917 55.2377C67.8922 55.239 67.8927 55.2403 67.8932 55.2417C67.8994 55.2574 67.9089 55.2778 67.9218 55.3026C67.9475 55.3521 67.9852 55.4162 68.0322 55.4908C68.126 55.6397 68.255 55.8278 68.3954 56.0199C69.1161 56.9512 69.4304 58.1216 69.3256 59.3939L69.3256 59.3941C69.1008 62.0015 67.0765 63.9225 64.526 63.9375H64.5257C63.0753 63.9375 62.0683 63.5777 61.1079 62.7075C59.9841 61.7035 59.4734 60.5469 59.4734 59.0633C59.4734 57.7184 59.7431 56.8609 60.4486 55.9602C60.5884 55.7762 60.7056 55.5966 60.782 55.4564C60.8204 55.3861 60.8477 55.3272 60.8626 55.2835Z" fill="#FCE301" stroke="#FCE301" stroke-width="0.1"/>
<path d="M25.5011 64.799L25.5011 64.799L25.5007 64.7981C25.3725 64.5116 25.3204 64.2675 25.3559 64.0426C25.3915 63.8171 25.5139 63.6188 25.7187 63.4214C25.8705 63.2621 26.0038 63.1632 26.2004 63.1062C26.3936 63.0501 26.6452 63.0355 27.0307 63.0355C27.5904 63.0355 28.0076 63.121 28.2856 63.3135C28.5678 63.5088 28.6987 63.8084 28.6987 64.2137C28.6987 64.5945 28.5917 64.8914 28.3636 65.1038C28.137 65.3147 27.7979 65.4355 27.3474 65.4806L27.3472 65.4806C26.4209 65.5703 25.7526 65.3336 25.5011 64.799Z" fill="#FCE301" stroke="#FCE301" stroke-width="0.1"/>
<path d="M31.6105 63.3931L31.6107 63.3929C31.6859 63.314 31.7546 63.2497 31.8392 63.1995C31.9243 63.1491 32.0226 63.1145 32.1558 63.0905C32.4191 63.0432 32.8289 63.0359 33.5618 63.0359C34.0075 63.0359 34.3656 63.0452 34.6545 63.0726C34.943 63.0999 35.1656 63.1456 35.3387 63.22C35.5132 63.295 35.6369 63.3992 35.7269 63.5414C35.816 63.6821 35.8704 63.8572 35.9117 64.071L35.9117 64.0714C35.9494 64.2747 35.9551 64.4231 35.8981 64.5715C35.8422 64.7174 35.7278 64.8575 35.5424 65.0503L35.5424 65.0503L35.5411 65.0516C35.3186 65.2666 35.191 65.3875 34.9275 65.4484C34.6719 65.5076 34.2861 65.5109 33.5469 65.5109C32.8514 65.5109 32.4632 65.5037 32.2085 65.4524C32.0795 65.4264 31.9826 65.3888 31.8962 65.3341C31.8108 65.2801 31.7379 65.2107 31.656 65.1251C31.1621 64.646 31.1466 63.8879 31.6105 63.3931Z" fill="#FCE301" stroke="#FCE301" stroke-width="0.1"/>
<path d="M38.5636 64.799L38.5636 64.799L38.5632 64.7981C38.435 64.5116 38.3829 64.2675 38.4184 64.0426C38.454 63.8171 38.5764 63.6188 38.7812 63.4214C38.933 63.2621 39.0663 63.1632 39.2629 63.1062C39.4561 63.0501 39.7077 63.0355 40.0932 63.0355C40.6529 63.0355 41.0701 63.121 41.3481 63.3135C41.6303 63.5088 41.7612 63.8084 41.7612 64.2137C41.7612 64.5945 41.6542 64.8914 41.4261 65.1038C41.1995 65.3147 40.8604 65.4355 40.4099 65.4806L40.4097 65.4806C39.4834 65.5703 38.8151 65.3336 38.5636 64.799Z" fill="#FCE301" stroke="#FCE301" stroke-width="0.1"/>
</g>
<defs>
<clipPath id="clip0_209_16">
<rect width="76" height="76" fill="white"/>
</clipPath>
</defs>
</svg>
