<svg width="86" height="76" viewBox="0 0 86 76" fill="none" xmlns="http://www.w3.org/2000/svg">
<g clip-path="url(#clip0_209_2)">
<path d="M41.5429 0.451858C41.0571 1.02348 41 1.52786 41 6C41 10.4721 41.0571 10.9765 41.5429 11.5481C42.0571 12.1534 43.1 12.1534 43.6286 11.5313L44 11.0774V6V0.92261L43.6286 0.468671C43.1 -0.153394 42.0571 -0.153394 41.5429 0.451858Z" fill="#FCE301"/>
<path d="M25.8716 6.25981C25.3017 6.59396 25 7.11907 25 7.75555C25 8.15336 29.4253 14.9956 30.0957 15.6162C30.5148 16.0299 31.5708 16.1254 32.1743 15.823C32.7107 15.5525 33.0962 14.741 32.9789 14.1523C32.8615 13.6112 28.5033 6.92812 27.9334 6.41893C27.3803 5.92565 26.5421 5.862 25.8716 6.25981Z" fill="#FCE301"/>
<path d="M58.5695 6.13601C58.3851 6.19944 58.0834 6.42141 57.8822 6.62753C57.2117 7.35688 53.1217 13.6832 53.0211 14.1588C52.9038 14.7455 53.2893 15.5541 53.8257 15.8237C54.4292 16.1249 55.4852 16.0298 55.9043 15.6175C56.5747 14.9992 61 8.18136 61 7.78498C61 7.15076 60.6815 6.62753 60.1284 6.29457C59.5417 5.96161 59.1226 5.91404 58.5695 6.13601Z" fill="#FCE301"/>
<path d="M15.6547 15.1807C14.2773 15.6507 13.9246 16.1879 7.28984 27.9053C3.81289 34.0493 0.755859 39.5051 0.487109 40.0255C0.0839844 40.8145 0 41.2006 0 42.1238C0 43.5507 0.386328 44.4237 1.36055 45.263C2.41875 46.1863 7.12188 48.6876 8.02891 48.8219C9.70859 49.0737 11.5059 48.2343 12.3457 46.7906C12.5977 46.371 12.8328 46.0352 12.8664 46.0352C13.152 46.0352 14.3613 46.8074 15.0332 47.4285L15.8563 48.1672L15.5035 48.6204C14.4621 49.9466 14.2438 52.4814 15.0332 54.2273C15.7891 55.906 17.7711 57.4504 19.182 57.4504C19.434 57.4504 19.4844 57.5847 19.4844 58.2897C19.4844 60.6399 21.332 62.9565 23.65 63.544C24.1371 63.6616 24.4898 63.8126 24.4227 63.8798C24.2547 64.0477 24.6914 66.1796 25.0441 66.8847C25.7664 68.2948 27.3285 69.5202 28.7395 69.7888L29.3441 69.9063L29.4449 70.9807C29.5961 72.9112 30.7719 74.6235 32.6195 75.6139C33.241 75.9496 33.577 76 35.1055 76C36.634 76 36.9699 75.9496 37.625 75.5971C38.448 75.1774 42.832 71.7193 42.832 71.5179C42.832 71.4339 43.4535 71.8704 44.2262 72.4747C46.2922 74.1199 48.0391 74.5731 50.0547 73.9688C51.1633 73.633 52.0031 73.1126 52.7086 72.3236C53.2965 71.6522 53.918 70.5274 53.918 70.1413C53.918 69.772 54.1027 69.7217 54.9258 69.8727C55.9672 70.0742 57.6637 69.7888 58.6715 69.2516C59.5953 68.748 60.4688 67.8415 60.9559 66.8847C61.3086 66.1796 61.7453 64.0477 61.5773 63.8798C61.5102 63.8126 61.8629 63.6616 62.35 63.544C64.7184 62.9397 66.5156 60.6231 66.5156 58.1722C66.5156 57.5847 66.566 57.4504 66.818 57.4504C68.2289 57.4504 70.2109 55.906 70.9668 54.2273C71.7563 52.4814 71.5379 49.9466 70.4965 48.6204L70.1438 48.1672L70.9668 47.4285C71.6387 46.8074 72.8481 46.0352 73.1336 46.0352C73.1672 46.0352 73.4023 46.371 73.6543 46.7906C74.4941 48.2343 76.2914 49.0737 77.9711 48.8219C78.8781 48.6876 83.5813 46.1863 84.6395 45.263C85.6137 44.4237 86 43.5507 86 42.1238C86 40.8145 86 40.7977 83.9004 37.071C82.2375 34.15 81.8848 33.7975 80.7594 34.0157C79.9027 34.1668 79.3652 34.8215 79.3652 35.6776C79.3652 36.2484 79.6508 36.8695 80.9273 39.0854C81.7672 40.5794 82.4727 41.9392 82.4727 42.1238C82.4727 42.5771 82.4559 42.5771 79.7348 44.0879C78.2398 44.9273 77.316 45.3469 77.1145 45.2798C76.7953 45.1791 63.6602 22.1473 63.6602 21.6773C63.6602 21.5262 63.7945 21.2912 63.9625 21.1569C64.4328 20.7372 68.6152 18.5045 68.9008 18.5045C69.2535 18.5045 69.5055 18.8906 71.0508 21.6437C72.3273 23.8932 72.7809 24.38 73.6375 24.38C74.6117 24.38 75.418 23.5742 75.418 22.5838C75.418 21.8452 72.5625 16.9098 71.6555 16.0536C70.7484 15.2143 69.7406 14.8953 68.3633 15.0296C67.5066 15.0968 66.9859 15.3318 64.5504 16.6748C61.5941 18.3031 60.9559 18.8235 60.452 19.9314C60.116 20.6701 60.032 22.3991 60.284 23.0874C60.4688 23.5406 60.4855 23.5238 57.227 24.3968L56.1016 24.6989L52.0199 23.272C46.8129 21.4423 46.4938 21.3919 42.2273 21.7612C34.4168 22.4327 32.9891 22.6509 31.3262 23.4903C30.8727 23.7085 30.3016 24.0778 30.0664 24.2793L29.6465 24.6654L27.5973 24.0778C25.5984 23.4903 25.5648 23.4735 25.716 23.0874C25.968 22.3991 25.884 20.6533 25.548 19.9314C25.0441 18.8235 24.4059 18.3031 21.4328 16.658C18.6781 15.1471 18.5605 15.0968 17.4016 15.0464C16.7465 15.0128 15.957 15.08 15.6547 15.1807ZM19.5516 19.6964C21.9703 21.0226 22.3398 21.2912 22.3398 21.6773C22.3398 22.1473 9.20469 45.1791 8.88555 45.2798C8.68398 45.3469 7.76016 44.9273 6.26523 44.0879C3.56094 42.5939 3.52734 42.5603 3.52734 42.1406C3.52734 41.872 15.218 20.989 16.3938 19.1257C16.6121 18.7899 16.9313 18.5045 17.0824 18.5045C17.2336 18.5045 18.3422 19.0417 19.5516 19.6964ZM50.8945 26.6462C55.9504 28.4592 56.0512 28.4592 59.6961 27.4184C61.0566 27.0155 62.2492 26.7637 62.3164 26.8477C62.3836 26.9148 64.2984 30.3058 66.5996 34.3682C68.884 38.4307 70.8996 41.9895 71.0676 42.2917L71.4035 42.8121L70.4461 43.3493C69.9254 43.6515 69.0352 44.3397 68.4641 44.8601L67.4395 45.817L64.5 43.4836C58.5707 38.7664 52.3727 34.2004 50.2227 32.9414C47.8879 31.5816 46.0234 31.078 43.2855 31.078C42.2441 31.0948 40.8164 31.1955 40.0941 31.3466C35.8781 32.1524 32.9723 30.9941 32.2164 28.1738C31.9813 27.2841 32.1492 26.9988 33.1738 26.5455C34.1816 26.109 35.4582 25.9076 40.0605 25.4711C46.0234 24.9004 45.9563 24.9004 50.8945 26.6462ZM26.2703 27.3681L28.4371 28.006L28.8738 29.3657C30.3688 33.9486 34.484 35.9127 40.4133 34.8551C43.4367 34.3179 45.5531 34.5361 47.6863 35.6273C49.6012 36.5841 55.3961 40.848 62.7027 46.6563C67.9266 50.8027 68.2121 51.1049 67.8594 52.3807C67.5738 53.4886 66.4484 54.2105 65.3734 54.009C65.0207 53.9419 63.9457 53.2033 62.2996 51.8939C60.9055 50.7691 59.5449 49.7955 59.2762 49.6948C58.6715 49.4933 57.7141 49.7787 57.3613 50.2823C57.0758 50.702 57.0254 51.7764 57.2773 52.2632C57.3781 52.4311 58.5875 53.4886 59.9648 54.5966C61.3758 55.7381 62.602 56.846 62.7531 57.1482C63.593 58.7598 61.7789 60.791 60.1328 60.0859C59.8137 59.9516 58.3691 58.8941 56.9246 57.7525C55.4801 56.5942 54.1363 55.6038 53.918 55.5534C52.423 55.1673 51.1129 56.9971 51.9863 58.2394C52.1207 58.4408 53.4477 59.5655 54.9258 60.7406C57.1766 62.5368 57.6469 62.9901 57.882 63.5944C58.134 64.2659 58.134 64.333 57.798 65.0717C57.5293 65.7096 57.3109 65.9278 56.6895 66.1964C55.5809 66.6832 55.1777 66.4986 52.0199 63.9805C50.525 62.7886 49.0973 61.7814 48.8621 61.7311C48.1566 61.5632 47.2496 62.05 46.9137 62.7383C46.4434 63.7119 46.8129 64.3834 48.5262 65.7935C50.2898 67.2204 50.609 67.6401 50.609 68.5298C50.609 69.3859 50.1891 70.007 49.3156 70.4435C48.3582 70.9135 47.7703 70.7121 45.973 69.2852L44.3941 68.043L44.3102 67.0525C44.1422 65.3403 43.1512 63.6951 41.757 62.8222L41.2027 62.4865L41.6227 61.6471C41.8914 61.0931 42.0594 60.4049 42.1266 59.6663C42.2609 57.5847 41.4715 55.8724 39.7918 54.6302L39.0359 54.0594L39.4727 53.2033C39.8254 52.4646 39.8926 52.0953 39.8926 50.8195C39.8926 49.0065 39.5734 48.1504 38.3977 46.9081C37.2891 45.7163 35.9789 45.1623 34.2992 45.1623C33.5938 45.1623 32.8043 45.2462 32.5523 45.3469C32.1156 45.5148 32.082 45.4812 31.8973 44.8937C31.4438 43.3661 29.8816 41.872 28.2355 41.402C27.127 41.0663 25.2793 41.1502 24.2547 41.5699C23.8684 41.7377 22.4406 42.745 21.0633 43.8361L18.5605 45.8338L17.5359 44.8601C16.9648 44.3397 16.0746 43.6515 15.5539 43.3493C14.6469 42.8457 14.6133 42.7953 14.8316 42.4428C14.9492 42.2581 17.0152 38.6321 19.4004 34.4018C21.7688 30.1883 23.818 26.7302 23.9188 26.7302C24.0195 26.7302 25.0777 27.0155 26.2703 27.3681ZM27.6645 45.028C28.773 45.6995 29.0418 47.2607 28.1852 48.1672C27.9668 48.4022 26.3039 49.7955 24.4898 51.256C22.2559 53.0522 20.9961 53.9419 20.6266 54.009C19.5516 54.2105 18.4262 53.4886 18.1406 52.3975C17.8047 51.1888 18.1574 50.7524 21.5336 48.0497C23.1965 46.7067 24.8762 45.4141 25.2457 45.1455C26.052 44.6083 26.8918 44.558 27.6645 45.028ZM35.4078 49.0065C35.9285 49.3255 36.4492 50.2152 36.4492 50.7859C36.4492 51.0377 36.3316 51.4742 36.1973 51.7596C35.8949 52.3303 26.7574 59.7166 25.8672 60.0859C24.2211 60.791 22.407 58.7598 23.2469 57.1314C23.5828 56.4767 32.9387 48.9561 33.6777 48.7379C34.2656 48.57 34.8535 48.654 35.4078 49.0065ZM37.6922 57.4672C38.6328 58.2058 38.868 59.3137 38.2969 60.2538C37.877 60.9589 31.4605 66.0789 30.6879 66.3307C30.1672 66.5153 29.9656 66.4818 29.3105 66.1964C28.6891 65.9278 28.4707 65.7096 28.202 65.0717C27.866 64.333 27.866 64.2659 28.118 63.5776C28.3531 62.9733 28.8738 62.4865 32.0148 60.002C35.559 57.165 35.643 57.1146 36.4324 57.1146C37.0035 57.1146 37.373 57.2154 37.6922 57.4672ZM39.6406 65.7264C40.3629 66.0957 40.85 67.0022 40.766 67.8247C40.6652 68.7312 40.5309 68.8823 37.9945 70.9135C36.0293 72.4915 35.8949 72.5587 35.1223 72.5587C33.7617 72.5587 32.8043 71.4843 32.9723 70.1749C33.0898 69.3356 33.241 69.1509 35.7438 67.1533C37.625 65.6592 37.877 65.5081 38.5152 65.5081C38.9016 65.5081 39.4055 65.6088 39.6406 65.7264Z" fill="#FCE301"/>
<path d="M76.4792 27.6468C75.2188 29.321 76.6654 31.8322 78.2695 30.7288C78.7135 30.4054 79 29.7015 79 28.8834C79 28.0083 78.1979 27 77.4961 27C77.0807 27 76.8516 27.1522 76.4792 27.6468Z" fill="#FCE301"/>
</g>
<defs>
<clipPath id="clip0_209_2">
<rect width="86" height="76" fill="white"/>
</clipPath>
</defs>
</svg>
