<svg width="76" height="76" viewBox="0 0 76 76" fill="none" xmlns="http://www.w3.org/2000/svg">
<g clip-path="url(#clip0_209_9)">
<mask id="path-1-outside-1_209_9" maskUnits="userSpaceOnUse" x="4.69873" y="-0.951172" width="66" height="78" fill="black">
<rect fill="white" x="4.69873" y="-0.951172" width="66" height="78"/>
<path d="M20.2265 0.149964C16.0845 0.582705 12.0817 1.69547 9.46976 3.14824C8.00153 3.96736 6.30148 5.69832 5.96147 6.68744C5.71419 7.38292 5.69873 9.39208 5.69873 30.1946V52.9444L6.17784 53.8871C6.73422 54.9999 7.9088 56.1436 9.34612 56.9472L10.3352 57.5036V58.2145C10.3352 59.4046 10.7834 61.7692 11.278 63.2529C14.8481 73.9323 26.9185 79.0479 37.1497 74.2259C37.7525 73.9478 38.788 73.3605 39.4525 72.9277L40.6735 72.1241L42.6208 72.5259C45.6655 73.1441 47.381 73.2986 51.1365 73.2986C54.8148 73.2986 56.5458 73.1441 59.575 72.5413C65.2779 71.3977 69.4044 68.9712 70.1462 66.313C70.239 65.942 70.3008 61.5219 70.3008 53.9799V42.2186L69.8217 41.2758C67.4725 36.562 56.4222 33.9192 45.0009 35.3102L44.1972 35.4184L44.1509 21.2925L44.1045 7.16655L43.6872 6.37834C43.1154 5.28104 42.6054 4.72465 41.4926 3.93645C38.8343 2.03548 34.9706 0.799075 29.9631 0.227239C27.6912 -0.0354966 22.4829 -0.0818617 20.2265 0.149964ZM31.4314 2.43731C37.4588 3.51916 41.4308 5.49741 42.0335 7.75384C42.2808 8.68114 41.6626 9.82482 40.4107 10.7521C34.1669 15.4041 17.8155 15.775 10.4125 11.4476C6.61058 9.20661 6.8424 6.84199 11.0616 4.64738C13.1944 3.55007 16.2545 2.68459 19.3764 2.31367C20.1492 2.22094 20.9374 2.11275 21.1538 2.08184C21.3701 2.03548 23.3484 2.03548 25.5585 2.06639C28.8504 2.0973 29.9168 2.15912 31.4314 2.43731ZM42.0026 16.0841C41.6471 17.4441 39.3443 19.0669 36.3306 20.087C34.8469 20.597 32.3432 21.1688 30.195 21.4779C27.4903 21.8797 20.4428 21.7406 17.8773 21.2152C17.3827 21.1224 16.6718 21.7097 16.6718 22.2043C16.6718 23.3171 18.6037 23.6725 24.6312 23.688C27.1194 23.7034 29.2677 23.6262 30.2722 23.5025C34.9397 22.9152 39.3134 21.4779 41.4617 19.8397L42.2035 19.2833L42.1417 21.3543C42.0953 23.3943 42.0799 23.4562 41.6317 24.1207C40.0089 26.4235 35.0942 28.2781 28.974 28.8963C26.6558 29.1282 20.8601 28.9891 18.8046 28.6645C14.2763 27.9227 10.5516 26.5317 8.88247 24.9244C7.78516 23.8734 7.69243 23.5953 7.7388 21.4006L7.78516 19.4688L8.69701 20.087C10.0416 20.9988 10.9534 20.8288 10.9534 19.6851C10.9534 19.2215 10.8607 19.0824 10.0571 18.5569C8.88247 17.7378 7.9088 16.6714 7.78516 16.0223C7.7388 15.7441 7.70789 14.7704 7.7388 13.8586L7.78516 12.1894L8.48064 12.6685C10.9071 14.3068 14.6317 15.5277 19.0982 16.1459C22.0965 16.5632 28.2013 16.5323 31.1686 16.0687C35.4497 15.4195 38.8343 14.3068 41.0135 12.8385L42.0953 12.1122L42.1417 13.7813C42.1572 14.6932 42.1108 15.7286 42.0026 16.0841ZM10.6598 28.479C14.1217 30.0709 18.2173 30.8591 23.6266 30.9982C28.5567 31.1219 31.7868 30.7818 35.666 29.7154C37.737 29.1436 40.0553 28.1236 41.2608 27.2581C41.6781 26.9645 42.049 26.7172 42.0953 26.7172C42.2499 26.7172 42.1726 30.0555 42.0026 30.6582C41.7708 31.4928 40.3953 32.8219 39.0043 33.5483C36.6861 34.7538 33.0078 35.7429 29.4222 36.1447C27.444 36.3611 22.2202 36.3611 20.4428 36.1447C14.1372 35.372 9.56249 33.6101 8.15608 31.3691C7.72334 30.7046 7.70789 30.6118 7.70789 28.6954V26.7172L8.61973 27.3354C9.11429 27.6754 10.0416 28.2009 10.6598 28.479ZM10.4898 35.6656C12.9008 36.8402 16.6873 37.783 20.4274 38.1694C22.8538 38.4012 29.3449 38.2621 31.4314 37.9375C35.5115 37.273 38.7725 36.1911 40.8898 34.8002C41.3844 34.4756 41.879 34.151 41.9872 34.0892C42.1263 33.9965 42.1726 34.182 42.1726 34.8774V35.7893L40.5962 36.2066C38.5561 36.7475 36.4543 37.6284 35.1097 38.4939L34.0433 39.1894L32.6678 38.8957C30.7668 38.4939 26.5012 38.5866 24.6002 39.0657C22.1893 39.6685 19.6855 40.8585 17.7691 42.2958L16.95 42.914L16.0072 42.6977C12.128 41.8167 8.8361 40.0703 8.01699 38.4475C7.75425 37.953 7.70789 37.5357 7.70789 35.9129V33.981L8.44973 34.5065C8.85156 34.8002 9.76341 35.3256 10.4898 35.6656ZM56.7776 37.2884C61.7851 38.0457 65.3397 39.3748 67.1634 41.1676C68.2298 42.234 68.4616 42.8522 68.1525 43.8877C67.6425 45.6032 64.0415 47.6124 59.7914 48.5706C56.7931 49.2352 55.4639 49.3588 51.0593 49.3588C48.6792 49.3588 46.5464 49.3124 46.33 49.2506C46.0673 49.1733 45.8509 48.9415 45.7118 48.6324C45.2791 47.5815 43.6254 45.3405 42.3272 44.0268C40.9362 42.6513 39.0971 41.3067 37.5052 40.534C37.0106 40.2867 36.6088 40.0549 36.6088 39.993C36.6088 39.8385 38.8961 38.8339 40.2407 38.4166C41.8017 37.9221 44.1509 37.4584 46.0364 37.242C46.84 37.1493 47.7519 37.0411 48.0455 37.0102C49.2047 36.8711 55.3094 37.072 56.7776 37.2884ZM28.1085 41.3067C28.1085 42.1413 28.4022 42.4813 29.1131 42.4813C29.7622 42.4813 30.1177 42.0331 30.1177 41.1831V40.5803L31.045 40.6731C33.8269 40.9667 36.9334 42.2495 39.2671 44.0577L40.1326 44.7377L39.6844 45.2323C38.5407 46.5151 39.978 47.8906 41.168 46.6542L41.6008 46.206L42.2963 47.0869C44.12 49.4361 45.3873 52.4962 45.6655 55.2317L45.7582 56.1899L45.0163 56.2827C44.1972 56.3754 43.8727 56.669 43.8727 57.3336C43.8727 57.9672 44.2436 58.2454 45.0627 58.2454H45.7736L45.6809 59.2346C45.5418 60.7801 45.0009 62.6656 44.259 64.242C43.5327 65.772 42.4044 67.5648 41.8635 68.0594C41.5544 68.3376 41.539 68.3376 41.1217 67.9357C39.9316 66.7921 38.5716 68.1058 39.638 69.3576C40.1326 69.9449 40.1016 69.9913 38.5716 71.0422C36.5161 72.4486 34.306 73.3759 32.0187 73.7778C30.1022 74.1178 30.1177 74.1178 30.1177 73.4068C30.1177 72.6032 29.7004 72.1086 29.0358 72.1086C28.3867 72.1086 28.1085 72.4795 28.1085 73.3605V74.0559L27.1503 73.9478C24.1675 73.6077 20.8292 72.1859 18.4491 70.2385L17.9855 69.8676L18.4337 69.3885C18.9282 68.8785 19.0364 68.1676 18.681 67.7657C18.3719 67.3639 17.4136 67.4566 16.9809 67.9048C16.78 68.1212 16.5636 68.2912 16.5018 68.2912C16.3318 68.2912 14.9099 66.2975 14.3072 65.2002C13.5808 63.8556 12.8544 61.7537 12.5762 60.131C12.2362 58.1836 12.2208 58.2454 13.1017 58.2454C13.7199 58.2454 13.9208 58.1836 14.1063 57.9054C14.6472 57.1327 14.1835 56.4063 13.0553 56.2827L12.3289 56.1899L12.4217 55.4017C12.7926 52.388 14.2454 48.9415 16.0381 46.8242L16.4863 46.2832L16.9809 46.7005C18.2791 47.7978 19.6237 46.4842 18.4491 45.2632C18.0937 44.8923 18.0473 44.7686 18.2019 44.5832C18.4955 44.2432 20.5201 42.8677 21.4629 42.404C23.3175 41.4613 26.0221 40.6731 27.4594 40.6422L28.1085 40.6267V41.3067ZM10.4125 42.914C11.5871 43.5013 14.4154 44.4905 14.8945 44.4905C15.0181 44.4905 15.1263 44.5368 15.1263 44.5832C15.1263 44.6296 14.7399 45.155 14.2763 45.7578C13.7972 46.3605 13.1635 47.2878 12.8699 47.8287C12.5608 48.3697 12.2826 48.8179 12.2362 48.8179C11.9426 48.8179 9.5934 47.4424 9.02156 46.9324C7.87789 45.9278 7.70789 45.4487 7.70789 43.1768V41.2449L8.44973 41.7704C8.85156 42.0486 9.73249 42.574 10.4125 42.914ZM67.9053 51.6771C66.5916 53.9335 61.7078 55.8499 55.4794 56.5454C53.3466 56.7772 48.0301 56.7618 47.8601 56.5145C47.7982 56.4063 47.7364 56.0045 47.7364 55.6181C47.7364 55.0462 47.4119 53.2998 47.0255 51.6771C46.9482 51.3679 47.0255 51.3679 51.0129 51.3679C55.3094 51.3679 56.9013 51.2289 59.8686 50.5952C63.0369 49.9152 65.7261 48.8797 67.4416 47.6897L68.2144 47.1642L68.2607 49.0806C68.2916 50.9043 68.2762 51.0588 67.9053 51.6771ZM8.60428 49.2042C9.02156 49.4979 9.82523 49.9615 10.3971 50.2243C11.3089 50.6416 11.4325 50.7497 11.3398 51.0434C10.9534 52.388 10.4898 54.3353 10.4898 54.7062C10.4898 55.2472 10.3662 55.2626 9.77886 54.8144C7.95517 53.4544 7.70789 52.9289 7.70789 50.5179C7.70789 49.4979 7.7388 48.6633 7.78516 48.6633C7.83153 48.6633 8.20245 48.9106 8.60428 49.2042ZM67.8589 59.0027C66.4834 61.2283 61.8469 63.0674 55.6958 63.8247C54.0266 64.0256 48.1692 64.0874 47.2573 63.9174L46.6855 63.8093L47.0564 62.6347C47.2573 62.001 47.5046 60.8573 47.6128 60.1155L47.7982 58.74L51.9093 58.6627C56.1903 58.5855 57.7049 58.4154 60.6878 57.7045C63.5778 57.009 66.097 55.989 67.5962 54.8917L68.2144 54.428L68.2607 56.3754C68.3071 58.2609 68.2916 58.3227 67.8589 59.0027ZM67.998 66.1121C66.8698 68.3067 61.9551 70.3622 56.0976 71.0731C52.4811 71.5059 47.9373 71.4131 44.5218 70.8413C42.219 70.4395 42.3426 70.5476 43.1308 69.7131C43.9345 68.8476 44.7536 67.7194 45.3409 66.6684C45.5882 66.2357 45.7891 65.8802 45.82 65.8493C45.8355 65.8184 46.9791 65.8802 48.3701 65.973C55.8194 66.4521 63.9179 64.8602 67.5189 62.2019L68.2144 61.6919L68.2607 63.5929C68.2916 65.2466 68.2607 65.5866 67.998 66.1121Z"/>
</mask>
<path d="M20.2265 0.149964C16.0845 0.582705 12.0817 1.69547 9.46976 3.14824C8.00153 3.96736 6.30148 5.69832 5.96147 6.68744C5.71419 7.38292 5.69873 9.39208 5.69873 30.1946V52.9444L6.17784 53.8871C6.73422 54.9999 7.9088 56.1436 9.34612 56.9472L10.3352 57.5036V58.2145C10.3352 59.4046 10.7834 61.7692 11.278 63.2529C14.8481 73.9323 26.9185 79.0479 37.1497 74.2259C37.7525 73.9478 38.788 73.3605 39.4525 72.9277L40.6735 72.1241L42.6208 72.5259C45.6655 73.1441 47.381 73.2986 51.1365 73.2986C54.8148 73.2986 56.5458 73.1441 59.575 72.5413C65.2779 71.3977 69.4044 68.9712 70.1462 66.313C70.239 65.942 70.3008 61.5219 70.3008 53.9799V42.2186L69.8217 41.2758C67.4725 36.562 56.4222 33.9192 45.0009 35.3102L44.1972 35.4184L44.1509 21.2925L44.1045 7.16655L43.6872 6.37834C43.1154 5.28104 42.6054 4.72465 41.4926 3.93645C38.8343 2.03548 34.9706 0.799075 29.9631 0.227239C27.6912 -0.0354966 22.4829 -0.0818617 20.2265 0.149964ZM31.4314 2.43731C37.4588 3.51916 41.4308 5.49741 42.0335 7.75384C42.2808 8.68114 41.6626 9.82482 40.4107 10.7521C34.1669 15.4041 17.8155 15.775 10.4125 11.4476C6.61058 9.20661 6.8424 6.84199 11.0616 4.64738C13.1944 3.55007 16.2545 2.68459 19.3764 2.31367C20.1492 2.22094 20.9374 2.11275 21.1538 2.08184C21.3701 2.03548 23.3484 2.03548 25.5585 2.06639C28.8504 2.0973 29.9168 2.15912 31.4314 2.43731ZM42.0026 16.0841C41.6471 17.4441 39.3443 19.0669 36.3306 20.087C34.8469 20.597 32.3432 21.1688 30.195 21.4779C27.4903 21.8797 20.4428 21.7406 17.8773 21.2152C17.3827 21.1224 16.6718 21.7097 16.6718 22.2043C16.6718 23.3171 18.6037 23.6725 24.6312 23.688C27.1194 23.7034 29.2677 23.6262 30.2722 23.5025C34.9397 22.9152 39.3134 21.4779 41.4617 19.8397L42.2035 19.2833L42.1417 21.3543C42.0953 23.3943 42.0799 23.4562 41.6317 24.1207C40.0089 26.4235 35.0942 28.2781 28.974 28.8963C26.6558 29.1282 20.8601 28.9891 18.8046 28.6645C14.2763 27.9227 10.5516 26.5317 8.88247 24.9244C7.78516 23.8734 7.69243 23.5953 7.7388 21.4006L7.78516 19.4688L8.69701 20.087C10.0416 20.9988 10.9534 20.8288 10.9534 19.6851C10.9534 19.2215 10.8607 19.0824 10.0571 18.5569C8.88247 17.7378 7.9088 16.6714 7.78516 16.0223C7.7388 15.7441 7.70789 14.7704 7.7388 13.8586L7.78516 12.1894L8.48064 12.6685C10.9071 14.3068 14.6317 15.5277 19.0982 16.1459C22.0965 16.5632 28.2013 16.5323 31.1686 16.0687C35.4497 15.4195 38.8343 14.3068 41.0135 12.8385L42.0953 12.1122L42.1417 13.7813C42.1572 14.6932 42.1108 15.7286 42.0026 16.0841ZM10.6598 28.479C14.1217 30.0709 18.2173 30.8591 23.6266 30.9982C28.5567 31.1219 31.7868 30.7818 35.666 29.7154C37.737 29.1436 40.0553 28.1236 41.2608 27.2581C41.6781 26.9645 42.049 26.7172 42.0953 26.7172C42.2499 26.7172 42.1726 30.0555 42.0026 30.6582C41.7708 31.4928 40.3953 32.8219 39.0043 33.5483C36.6861 34.7538 33.0078 35.7429 29.4222 36.1447C27.444 36.3611 22.2202 36.3611 20.4428 36.1447C14.1372 35.372 9.56249 33.6101 8.15608 31.3691C7.72334 30.7046 7.70789 30.6118 7.70789 28.6954V26.7172L8.61973 27.3354C9.11429 27.6754 10.0416 28.2009 10.6598 28.479ZM10.4898 35.6656C12.9008 36.8402 16.6873 37.783 20.4274 38.1694C22.8538 38.4012 29.3449 38.2621 31.4314 37.9375C35.5115 37.273 38.7725 36.1911 40.8898 34.8002C41.3844 34.4756 41.879 34.151 41.9872 34.0892C42.1263 33.9965 42.1726 34.182 42.1726 34.8774V35.7893L40.5962 36.2066C38.5561 36.7475 36.4543 37.6284 35.1097 38.4939L34.0433 39.1894L32.6678 38.8957C30.7668 38.4939 26.5012 38.5866 24.6002 39.0657C22.1893 39.6685 19.6855 40.8585 17.7691 42.2958L16.95 42.914L16.0072 42.6977C12.128 41.8167 8.8361 40.0703 8.01699 38.4475C7.75425 37.953 7.70789 37.5357 7.70789 35.9129V33.981L8.44973 34.5065C8.85156 34.8002 9.76341 35.3256 10.4898 35.6656ZM56.7776 37.2884C61.7851 38.0457 65.3397 39.3748 67.1634 41.1676C68.2298 42.234 68.4616 42.8522 68.1525 43.8877C67.6425 45.6032 64.0415 47.6124 59.7914 48.5706C56.7931 49.2352 55.4639 49.3588 51.0593 49.3588C48.6792 49.3588 46.5464 49.3124 46.33 49.2506C46.0673 49.1733 45.8509 48.9415 45.7118 48.6324C45.2791 47.5815 43.6254 45.3405 42.3272 44.0268C40.9362 42.6513 39.0971 41.3067 37.5052 40.534C37.0106 40.2867 36.6088 40.0549 36.6088 39.993C36.6088 39.8385 38.8961 38.8339 40.2407 38.4166C41.8017 37.9221 44.1509 37.4584 46.0364 37.242C46.84 37.1493 47.7519 37.0411 48.0455 37.0102C49.2047 36.8711 55.3094 37.072 56.7776 37.2884ZM28.1085 41.3067C28.1085 42.1413 28.4022 42.4813 29.1131 42.4813C29.7622 42.4813 30.1177 42.0331 30.1177 41.1831V40.5803L31.045 40.6731C33.8269 40.9667 36.9334 42.2495 39.2671 44.0577L40.1326 44.7377L39.6844 45.2323C38.5407 46.5151 39.978 47.8906 41.168 46.6542L41.6008 46.206L42.2963 47.0869C44.12 49.4361 45.3873 52.4962 45.6655 55.2317L45.7582 56.1899L45.0163 56.2827C44.1972 56.3754 43.8727 56.669 43.8727 57.3336C43.8727 57.9672 44.2436 58.2454 45.0627 58.2454H45.7736L45.6809 59.2346C45.5418 60.7801 45.0009 62.6656 44.259 64.242C43.5327 65.772 42.4044 67.5648 41.8635 68.0594C41.5544 68.3376 41.539 68.3376 41.1217 67.9357C39.9316 66.7921 38.5716 68.1058 39.638 69.3576C40.1326 69.9449 40.1016 69.9913 38.5716 71.0422C36.5161 72.4486 34.306 73.3759 32.0187 73.7778C30.1022 74.1178 30.1177 74.1178 30.1177 73.4068C30.1177 72.6032 29.7004 72.1086 29.0358 72.1086C28.3867 72.1086 28.1085 72.4795 28.1085 73.3605V74.0559L27.1503 73.9478C24.1675 73.6077 20.8292 72.1859 18.4491 70.2385L17.9855 69.8676L18.4337 69.3885C18.9282 68.8785 19.0364 68.1676 18.681 67.7657C18.3719 67.3639 17.4136 67.4566 16.9809 67.9048C16.78 68.1212 16.5636 68.2912 16.5018 68.2912C16.3318 68.2912 14.9099 66.2975 14.3072 65.2002C13.5808 63.8556 12.8544 61.7537 12.5762 60.131C12.2362 58.1836 12.2208 58.2454 13.1017 58.2454C13.7199 58.2454 13.9208 58.1836 14.1063 57.9054C14.6472 57.1327 14.1835 56.4063 13.0553 56.2827L12.3289 56.1899L12.4217 55.4017C12.7926 52.388 14.2454 48.9415 16.0381 46.8242L16.4863 46.2832L16.9809 46.7005C18.2791 47.7978 19.6237 46.4842 18.4491 45.2632C18.0937 44.8923 18.0473 44.7686 18.2019 44.5832C18.4955 44.2432 20.5201 42.8677 21.4629 42.404C23.3175 41.4613 26.0221 40.6731 27.4594 40.6422L28.1085 40.6267V41.3067ZM10.4125 42.914C11.5871 43.5013 14.4154 44.4905 14.8945 44.4905C15.0181 44.4905 15.1263 44.5368 15.1263 44.5832C15.1263 44.6296 14.7399 45.155 14.2763 45.7578C13.7972 46.3605 13.1635 47.2878 12.8699 47.8287C12.5608 48.3697 12.2826 48.8179 12.2362 48.8179C11.9426 48.8179 9.5934 47.4424 9.02156 46.9324C7.87789 45.9278 7.70789 45.4487 7.70789 43.1768V41.2449L8.44973 41.7704C8.85156 42.0486 9.73249 42.574 10.4125 42.914ZM67.9053 51.6771C66.5916 53.9335 61.7078 55.8499 55.4794 56.5454C53.3466 56.7772 48.0301 56.7618 47.8601 56.5145C47.7982 56.4063 47.7364 56.0045 47.7364 55.6181C47.7364 55.0462 47.4119 53.2998 47.0255 51.6771C46.9482 51.3679 47.0255 51.3679 51.0129 51.3679C55.3094 51.3679 56.9013 51.2289 59.8686 50.5952C63.0369 49.9152 65.7261 48.8797 67.4416 47.6897L68.2144 47.1642L68.2607 49.0806C68.2916 50.9043 68.2762 51.0588 67.9053 51.6771ZM8.60428 49.2042C9.02156 49.4979 9.82523 49.9615 10.3971 50.2243C11.3089 50.6416 11.4325 50.7497 11.3398 51.0434C10.9534 52.388 10.4898 54.3353 10.4898 54.7062C10.4898 55.2472 10.3662 55.2626 9.77886 54.8144C7.95517 53.4544 7.70789 52.9289 7.70789 50.5179C7.70789 49.4979 7.7388 48.6633 7.78516 48.6633C7.83153 48.6633 8.20245 48.9106 8.60428 49.2042ZM67.8589 59.0027C66.4834 61.2283 61.8469 63.0674 55.6958 63.8247C54.0266 64.0256 48.1692 64.0874 47.2573 63.9174L46.6855 63.8093L47.0564 62.6347C47.2573 62.001 47.5046 60.8573 47.6128 60.1155L47.7982 58.74L51.9093 58.6627C56.1903 58.5855 57.7049 58.4154 60.6878 57.7045C63.5778 57.009 66.097 55.989 67.5962 54.8917L68.2144 54.428L68.2607 56.3754C68.3071 58.2609 68.2916 58.3227 67.8589 59.0027ZM67.998 66.1121C66.8698 68.3067 61.9551 70.3622 56.0976 71.0731C52.4811 71.5059 47.9373 71.4131 44.5218 70.8413C42.219 70.4395 42.3426 70.5476 43.1308 69.7131C43.9345 68.8476 44.7536 67.7194 45.3409 66.6684C45.5882 66.2357 45.7891 65.8802 45.82 65.8493C45.8355 65.8184 46.9791 65.8802 48.3701 65.973C55.8194 66.4521 63.9179 64.8602 67.5189 62.2019L68.2144 61.6919L68.2607 63.5929C68.2916 65.2466 68.2607 65.5866 67.998 66.1121Z" fill="#FCE301"/>
<path d="M20.2265 0.149964C16.0845 0.582705 12.0817 1.69547 9.46976 3.14824C8.00153 3.96736 6.30148 5.69832 5.96147 6.68744C5.71419 7.38292 5.69873 9.39208 5.69873 30.1946V52.9444L6.17784 53.8871C6.73422 54.9999 7.9088 56.1436 9.34612 56.9472L10.3352 57.5036V58.2145C10.3352 59.4046 10.7834 61.7692 11.278 63.2529C14.8481 73.9323 26.9185 79.0479 37.1497 74.2259C37.7525 73.9478 38.788 73.3605 39.4525 72.9277L40.6735 72.1241L42.6208 72.5259C45.6655 73.1441 47.381 73.2986 51.1365 73.2986C54.8148 73.2986 56.5458 73.1441 59.575 72.5413C65.2779 71.3977 69.4044 68.9712 70.1462 66.313C70.239 65.942 70.3008 61.5219 70.3008 53.9799V42.2186L69.8217 41.2758C67.4725 36.562 56.4222 33.9192 45.0009 35.3102L44.1972 35.4184L44.1509 21.2925L44.1045 7.16655L43.6872 6.37834C43.1154 5.28104 42.6054 4.72465 41.4926 3.93645C38.8343 2.03548 34.9706 0.799075 29.9631 0.227239C27.6912 -0.0354966 22.4829 -0.0818617 20.2265 0.149964ZM31.4314 2.43731C37.4588 3.51916 41.4308 5.49741 42.0335 7.75384C42.2808 8.68114 41.6626 9.82482 40.4107 10.7521C34.1669 15.4041 17.8155 15.775 10.4125 11.4476C6.61058 9.20661 6.8424 6.84199 11.0616 4.64738C13.1944 3.55007 16.2545 2.68459 19.3764 2.31367C20.1492 2.22094 20.9374 2.11275 21.1538 2.08184C21.3701 2.03548 23.3484 2.03548 25.5585 2.06639C28.8504 2.0973 29.9168 2.15912 31.4314 2.43731ZM42.0026 16.0841C41.6471 17.4441 39.3443 19.0669 36.3306 20.087C34.8469 20.597 32.3432 21.1688 30.195 21.4779C27.4903 21.8797 20.4428 21.7406 17.8773 21.2152C17.3827 21.1224 16.6718 21.7097 16.6718 22.2043C16.6718 23.3171 18.6037 23.6725 24.6312 23.688C27.1194 23.7034 29.2677 23.6262 30.2722 23.5025C34.9397 22.9152 39.3134 21.4779 41.4617 19.8397L42.2035 19.2833L42.1417 21.3543C42.0953 23.3943 42.0799 23.4562 41.6317 24.1207C40.0089 26.4235 35.0942 28.2781 28.974 28.8963C26.6558 29.1282 20.8601 28.9891 18.8046 28.6645C14.2763 27.9227 10.5516 26.5317 8.88247 24.9244C7.78516 23.8734 7.69243 23.5953 7.7388 21.4006L7.78516 19.4688L8.69701 20.087C10.0416 20.9988 10.9534 20.8288 10.9534 19.6851C10.9534 19.2215 10.8607 19.0824 10.0571 18.5569C8.88247 17.7378 7.9088 16.6714 7.78516 16.0223C7.7388 15.7441 7.70789 14.7704 7.7388 13.8586L7.78516 12.1894L8.48064 12.6685C10.9071 14.3068 14.6317 15.5277 19.0982 16.1459C22.0965 16.5632 28.2013 16.5323 31.1686 16.0687C35.4497 15.4195 38.8343 14.3068 41.0135 12.8385L42.0953 12.1122L42.1417 13.7813C42.1572 14.6932 42.1108 15.7286 42.0026 16.0841ZM10.6598 28.479C14.1217 30.0709 18.2173 30.8591 23.6266 30.9982C28.5567 31.1219 31.7868 30.7818 35.666 29.7154C37.737 29.1436 40.0553 28.1236 41.2608 27.2581C41.6781 26.9645 42.049 26.7172 42.0953 26.7172C42.2499 26.7172 42.1726 30.0555 42.0026 30.6582C41.7708 31.4928 40.3953 32.8219 39.0043 33.5483C36.6861 34.7538 33.0078 35.7429 29.4222 36.1447C27.444 36.3611 22.2202 36.3611 20.4428 36.1447C14.1372 35.372 9.56249 33.6101 8.15608 31.3691C7.72334 30.7046 7.70789 30.6118 7.70789 28.6954V26.7172L8.61973 27.3354C9.11429 27.6754 10.0416 28.2009 10.6598 28.479ZM10.4898 35.6656C12.9008 36.8402 16.6873 37.783 20.4274 38.1694C22.8538 38.4012 29.3449 38.2621 31.4314 37.9375C35.5115 37.273 38.7725 36.1911 40.8898 34.8002C41.3844 34.4756 41.879 34.151 41.9872 34.0892C42.1263 33.9965 42.1726 34.182 42.1726 34.8774V35.7893L40.5962 36.2066C38.5561 36.7475 36.4543 37.6284 35.1097 38.4939L34.0433 39.1894L32.6678 38.8957C30.7668 38.4939 26.5012 38.5866 24.6002 39.0657C22.1893 39.6685 19.6855 40.8585 17.7691 42.2958L16.95 42.914L16.0072 42.6977C12.128 41.8167 8.8361 40.0703 8.01699 38.4475C7.75425 37.953 7.70789 37.5357 7.70789 35.9129V33.981L8.44973 34.5065C8.85156 34.8002 9.76341 35.3256 10.4898 35.6656ZM56.7776 37.2884C61.7851 38.0457 65.3397 39.3748 67.1634 41.1676C68.2298 42.234 68.4616 42.8522 68.1525 43.8877C67.6425 45.6032 64.0415 47.6124 59.7914 48.5706C56.7931 49.2352 55.4639 49.3588 51.0593 49.3588C48.6792 49.3588 46.5464 49.3124 46.33 49.2506C46.0673 49.1733 45.8509 48.9415 45.7118 48.6324C45.2791 47.5815 43.6254 45.3405 42.3272 44.0268C40.9362 42.6513 39.0971 41.3067 37.5052 40.534C37.0106 40.2867 36.6088 40.0549 36.6088 39.993C36.6088 39.8385 38.8961 38.8339 40.2407 38.4166C41.8017 37.9221 44.1509 37.4584 46.0364 37.242C46.84 37.1493 47.7519 37.0411 48.0455 37.0102C49.2047 36.8711 55.3094 37.072 56.7776 37.2884ZM28.1085 41.3067C28.1085 42.1413 28.4022 42.4813 29.1131 42.4813C29.7622 42.4813 30.1177 42.0331 30.1177 41.1831V40.5803L31.045 40.6731C33.8269 40.9667 36.9334 42.2495 39.2671 44.0577L40.1326 44.7377L39.6844 45.2323C38.5407 46.5151 39.978 47.8906 41.168 46.6542L41.6008 46.206L42.2963 47.0869C44.12 49.4361 45.3873 52.4962 45.6655 55.2317L45.7582 56.1899L45.0163 56.2827C44.1972 56.3754 43.8727 56.669 43.8727 57.3336C43.8727 57.9672 44.2436 58.2454 45.0627 58.2454H45.7736L45.6809 59.2346C45.5418 60.7801 45.0009 62.6656 44.259 64.242C43.5327 65.772 42.4044 67.5648 41.8635 68.0594C41.5544 68.3376 41.539 68.3376 41.1217 67.9357C39.9316 66.7921 38.5716 68.1058 39.638 69.3576C40.1326 69.9449 40.1016 69.9913 38.5716 71.0422C36.5161 72.4486 34.306 73.3759 32.0187 73.7778C30.1022 74.1178 30.1177 74.1178 30.1177 73.4068C30.1177 72.6032 29.7004 72.1086 29.0358 72.1086C28.3867 72.1086 28.1085 72.4795 28.1085 73.3605V74.0559L27.1503 73.9478C24.1675 73.6077 20.8292 72.1859 18.4491 70.2385L17.9855 69.8676L18.4337 69.3885C18.9282 68.8785 19.0364 68.1676 18.681 67.7657C18.3719 67.3639 17.4136 67.4566 16.9809 67.9048C16.78 68.1212 16.5636 68.2912 16.5018 68.2912C16.3318 68.2912 14.9099 66.2975 14.3072 65.2002C13.5808 63.8556 12.8544 61.7537 12.5762 60.131C12.2362 58.1836 12.2208 58.2454 13.1017 58.2454C13.7199 58.2454 13.9208 58.1836 14.1063 57.9054C14.6472 57.1327 14.1835 56.4063 13.0553 56.2827L12.3289 56.1899L12.4217 55.4017C12.7926 52.388 14.2454 48.9415 16.0381 46.8242L16.4863 46.2832L16.9809 46.7005C18.2791 47.7978 19.6237 46.4842 18.4491 45.2632C18.0937 44.8923 18.0473 44.7686 18.2019 44.5832C18.4955 44.2432 20.5201 42.8677 21.4629 42.404C23.3175 41.4613 26.0221 40.6731 27.4594 40.6422L28.1085 40.6267V41.3067ZM10.4125 42.914C11.5871 43.5013 14.4154 44.4905 14.8945 44.4905C15.0181 44.4905 15.1263 44.5368 15.1263 44.5832C15.1263 44.6296 14.7399 45.155 14.2763 45.7578C13.7972 46.3605 13.1635 47.2878 12.8699 47.8287C12.5608 48.3697 12.2826 48.8179 12.2362 48.8179C11.9426 48.8179 9.5934 47.4424 9.02156 46.9324C7.87789 45.9278 7.70789 45.4487 7.70789 43.1768V41.2449L8.44973 41.7704C8.85156 42.0486 9.73249 42.574 10.4125 42.914ZM67.9053 51.6771C66.5916 53.9335 61.7078 55.8499 55.4794 56.5454C53.3466 56.7772 48.0301 56.7618 47.8601 56.5145C47.7982 56.4063 47.7364 56.0045 47.7364 55.6181C47.7364 55.0462 47.4119 53.2998 47.0255 51.6771C46.9482 51.3679 47.0255 51.3679 51.0129 51.3679C55.3094 51.3679 56.9013 51.2289 59.8686 50.5952C63.0369 49.9152 65.7261 48.8797 67.4416 47.6897L68.2144 47.1642L68.2607 49.0806C68.2916 50.9043 68.2762 51.0588 67.9053 51.6771ZM8.60428 49.2042C9.02156 49.4979 9.82523 49.9615 10.3971 50.2243C11.3089 50.6416 11.4325 50.7497 11.3398 51.0434C10.9534 52.388 10.4898 54.3353 10.4898 54.7062C10.4898 55.2472 10.3662 55.2626 9.77886 54.8144C7.95517 53.4544 7.70789 52.9289 7.70789 50.5179C7.70789 49.4979 7.7388 48.6633 7.78516 48.6633C7.83153 48.6633 8.20245 48.9106 8.60428 49.2042ZM67.8589 59.0027C66.4834 61.2283 61.8469 63.0674 55.6958 63.8247C54.0266 64.0256 48.1692 64.0874 47.2573 63.9174L46.6855 63.8093L47.0564 62.6347C47.2573 62.001 47.5046 60.8573 47.6128 60.1155L47.7982 58.74L51.9093 58.6627C56.1903 58.5855 57.7049 58.4154 60.6878 57.7045C63.5778 57.009 66.097 55.989 67.5962 54.8917L68.2144 54.428L68.2607 56.3754C68.3071 58.2609 68.2916 58.3227 67.8589 59.0027ZM67.998 66.1121C66.8698 68.3067 61.9551 70.3622 56.0976 71.0731C52.4811 71.5059 47.9373 71.4131 44.5218 70.8413C42.219 70.4395 42.3426 70.5476 43.1308 69.7131C43.9345 68.8476 44.7536 67.7194 45.3409 66.6684C45.5882 66.2357 45.7891 65.8802 45.82 65.8493C45.8355 65.8184 46.9791 65.8802 48.3701 65.973C55.8194 66.4521 63.9179 64.8602 67.5189 62.2019L68.2144 61.6919L68.2607 63.5929C68.2916 65.2466 68.2607 65.5866 67.998 66.1121Z" stroke="#FCE301" stroke-width="0.2" mask="url(#path-1-outside-1_209_9)"/>
<path d="M25.7387 4.15635C25.9116 4.40787 25.9961 4.63237 25.9731 4.85411C25.9501 5.07558 25.821 5.28271 25.5936 5.50243C25.5082 5.59176 25.4316 5.66367 25.343 5.71973C25.2535 5.77637 25.154 5.81551 25.0236 5.84259C24.7663 5.89604 24.3816 5.90352 23.7036 5.90352C21.7756 5.90352 19.6619 6.13489 17.4549 6.61332L17.4546 6.61338C16.321 6.85245 15.6772 6.97382 15.2765 6.97185C15.0745 6.97086 14.9287 6.9387 14.8112 6.8707C14.694 6.80282 14.6105 6.70237 14.5279 6.57643L14.5279 6.57643L14.5277 6.57611C14.2038 6.07414 14.3336 5.45597 14.8359 5.13169C14.8941 5.09295 14.997 5.05023 15.1306 5.00473C15.266 4.95862 15.4376 4.90813 15.6367 4.85497C16.0349 4.74864 16.5449 4.63106 17.098 4.51601C18.2039 4.28593 19.4845 4.06537 20.3907 3.96468L20.3907 3.96467L20.3919 3.96456C21.1041 3.90263 22.5426 3.8253 23.5792 3.80983L23.5795 3.80982C24.466 3.80212 24.9464 3.8019 25.2315 3.84516C25.3754 3.86699 25.4747 3.90051 25.553 3.95306C25.6312 4.00553 25.6839 4.07412 25.7387 4.15635ZM25.7387 4.15635C25.7388 4.15645 25.7388 4.15655 25.7389 4.15664L25.6973 4.18438L25.7385 4.15605C25.7386 4.15615 25.7386 4.15625 25.7387 4.15635Z" fill="#FCE301" stroke="#FCE301" stroke-width="0.1"/>
<path d="M9.83617 9.13383C9.67285 8.97052 9.56837 8.79728 9.52716 8.61365C9.48586 8.4296 9.50915 8.23958 9.59385 8.04497C9.76204 7.65853 10.174 7.25007 10.8171 6.81611C11.3999 6.41987 11.9072 6.24151 12.3021 6.29013C12.5012 6.31463 12.6709 6.39678 12.8047 6.53596C12.9377 6.67441 13.0328 6.86666 13.0883 7.1082C13.1205 7.22932 13.1295 7.34233 13.1002 7.46003C13.0709 7.57733 13.0047 7.69462 12.8947 7.82649C12.676 8.08847 12.2733 8.42029 11.6023 8.93698C11.2292 9.23238 10.9074 9.4015 10.6173 9.43597C10.323 9.47097 10.0689 9.36655 9.83617 9.13383Z" fill="#FCE301" stroke="#FCE301" stroke-width="0.1"/>
<path d="M15.9288 61.3519L15.9287 61.3518L35.6506 68.7858C35.6042 69.2495 35.5115 69.3422 34.5997 69.7904L34.622 69.8351C34.6219 69.8352 34.6219 69.8352 34.6218 69.8353C34.0608 70.1157 32.9598 70.4876 32.1693 70.6736C30.9422 70.9687 30.4271 70.9996 28.5241 70.9222C26.9462 70.8758 26.0293 70.752 25.2505 70.5183L25.2504 70.5183C20.7062 69.1535 17.402 65.8957 15.9288 61.3519ZM35.4672 67.9174C35.6532 68.12 35.74 68.4252 35.7004 68.7908L15.6518 54.5981L15.6028 54.5882C15.6028 54.5882 15.6028 54.5882 15.6028 54.5882C16.7661 48.8336 21.435 44.4593 27.2518 43.6837C28.6958 43.4819 30.9741 43.6214 32.3864 43.9784L32.3867 43.9785C35.0847 44.6762 37.164 45.8865 39.0716 47.9026L39.0717 47.9027C42.8257 51.8895 43.8179 57.5051 41.6935 62.7463L41.6934 62.7464C41.4462 63.349 41.2465 63.7426 41.0337 63.9852C40.9265 64.1075 40.815 64.1926 40.6914 64.2468C40.5679 64.3009 40.4351 64.323 40.2871 64.323C40.0248 64.323 39.7509 64.1967 39.5435 64.0171C39.3368 63.8383 39.1862 63.5977 39.1862 63.3611C39.1862 63.3151 39.2005 63.2446 39.2232 63.1607C39.2463 63.0751 39.2795 62.9705 39.3204 62.8539C39.402 62.6207 39.5146 62.3373 39.6387 62.058L39.6388 62.0577C40.393 60.3956 40.6235 59.2745 40.6235 57.3182C40.6235 54.5008 39.8234 52.1937 38.1618 50.1321L38.1617 50.132C34.4832 45.5454 28.0659 44.3457 23.1115 47.3307C21.8657 48.0844 20.233 49.6247 19.4336 50.8238C17.125 54.3175 16.8328 58.5643 18.6487 62.3193L18.6488 62.3194C19.8493 64.8128 21.541 66.4893 24.0349 67.7054L24.013 67.7503L24.0348 67.7054C25.0372 68.1912 25.8329 68.4907 26.6657 68.6596C27.4987 68.8285 28.3714 68.8672 29.5287 68.8286C30.3631 68.7977 30.8778 68.763 31.3358 68.6825C31.7932 68.6021 32.1957 68.4758 32.8055 68.2597C33.5775 67.9817 34.4158 67.7175 34.6677 67.6703L34.6677 67.6703L34.6697 67.67C35.0002 67.6216 35.2804 67.714 35.4672 67.9174Z" fill="#FCE301" stroke="#FCE301" stroke-width="0.1"/>
<path d="M28.8051 48.9529C29.9246 48.976 30.5652 48.9953 31.0108 49.0518C31.4598 49.1086 31.7125 49.2034 32.0564 49.3753C35.0541 50.8432 35.665 54.9192 33.2269 57.1075C32.7054 57.5822 32.2393 57.8806 31.6448 58.0591C31.0521 58.2371 30.3351 58.295 29.3141 58.295H27.695V58.8477V59.4016L30.2422 59.4623C30.2423 59.4623 30.2423 59.4623 30.2424 59.4623C31.2084 59.4777 31.8784 59.5048 32.3306 59.5475C32.5566 59.5688 32.7297 59.5942 32.8587 59.6244C32.9858 59.6542 33.0764 59.69 33.1322 59.7363C33.2205 59.8071 33.2851 59.927 33.3297 60.0638C33.3748 60.2021 33.4015 60.3641 33.4094 60.526C33.4173 60.6879 33.4065 60.8518 33.3755 60.9941C33.3447 61.1349 33.2927 61.2609 33.2132 61.3404C33.1896 61.3641 33.1537 61.3816 33.1126 61.3958C33.0701 61.4105 33.0162 61.4236 32.9511 61.4354C32.8209 61.4591 32.641 61.4785 32.4084 61.494C31.9431 61.5251 31.2617 61.5405 30.3341 61.5405H27.7238L27.664 62.9756C27.664 62.9757 27.664 62.9758 27.664 62.9759C27.6524 63.3781 27.633 63.7009 27.5974 63.9586C27.5618 64.2159 27.5096 64.4121 27.4301 64.559C27.3495 64.7077 27.2414 64.8048 27.0984 64.8635C26.9575 64.9213 26.7855 64.9406 26.5786 64.9406C26.386 64.9406 26.2237 64.9172 26.0901 64.8528C25.9548 64.7877 25.853 64.6827 25.7782 64.5279C25.7041 64.3747 25.6564 64.1727 25.6269 63.9117C25.5974 63.6503 25.5858 63.3265 25.5858 62.9278V61.5405H24.5694C24.2711 61.5405 24.0287 61.5299 23.8331 61.5014C23.6378 61.4729 23.4854 61.426 23.3695 61.3509C23.1321 61.1968 23.0666 60.9368 23.0666 60.5478C23.0666 60.1828 23.1626 59.9241 23.4169 59.7511C23.6648 59.5824 24.0558 59.501 24.6279 59.4624L24.6282 59.4624L25.5858 59.4034V58.8477V58.3084L24.521 58.264L24.5208 58.264C24.2582 58.2524 24.0541 58.2417 23.8932 58.2259C23.7326 58.2101 23.6118 58.1888 23.517 58.1549C23.4207 58.1203 23.3513 58.0726 23.294 58.0052C23.2381 57.9396 23.1952 57.857 23.1488 57.7566C23.0631 57.5851 23.0164 57.453 23.0164 57.3157C23.0164 57.1785 23.0631 57.0426 23.1488 56.8633L23.1488 56.8633C23.1954 56.7664 23.2384 56.6865 23.2946 56.6229C23.352 56.5578 23.4214 56.5118 23.5175 56.4784C23.6121 56.4455 23.7327 56.4247 23.8933 56.4092C24.0541 56.3936 24.2582 56.3829 24.5208 56.3713L24.521 56.3713L25.5858 56.3269V52.913V52.9055C25.5858 51.2044 25.5858 50.3373 25.6305 49.8656C25.6528 49.6294 25.6868 49.4853 25.7418 49.3836C25.7978 49.2799 25.8734 49.2249 25.9622 49.1631M28.8051 48.9529L28.8041 49.0027L28.8052 48.9529C28.8052 48.9529 28.8051 48.9529 28.8051 48.9529ZM28.8051 48.9529C27.7625 48.9297 27.1303 48.9257 26.7218 48.9549C26.3131 48.9841 26.1202 49.0469 25.9622 49.1631M25.9622 49.1631C25.9624 49.163 25.9625 49.1628 25.9627 49.1627L25.9913 49.2038L25.9616 49.1635C25.9618 49.1634 25.962 49.1632 25.9622 49.1631ZM31.1314 51.3506L31.1309 51.3504C30.6164 51.0931 30.1936 51.0311 29.0668 51.0311H27.695V53.7012V56.3836L29.172 56.2941L29.1727 56.294C30.0066 56.2554 30.5564 56.1822 30.9757 56.0285C31.3923 55.8758 31.6831 55.6426 31.996 55.2762C33.1027 53.9571 32.6946 52.1094 31.1314 51.3506ZM24.523 58.2141L24.523 58.2141L24.523 58.2141Z" fill="#FCE301" stroke="#FCE301" stroke-width="0.1"/>
</g>
<defs>
<clipPath id="clip0_209_9">
<rect width="76" height="76" fill="white"/>
</clipPath>
</defs>
</svg>
