<svg width="10" height="18" viewBox="0 0 10 18" fill="none" xmlns="http://www.w3.org/2000/svg">
<path d="M7.85516 9.79222H6.6847C4.84637 9.79222 3.06362 8.64025 3.06362 5.76011C3.06362 2.75963 4.7348 1.53589 6.43396 1.53589H7.85515L7.85516 9.79222ZM9.6935 0H6.51754C3.39811 0 0.751602 2.04001 0.751602 6.00016C0.751602 8.37619 2.03344 10.1281 4.3169 10.9921L0.0557331 17.6162C-0.0834407 17.8324 0.0557331 18 0.277919 18H2.25561C2.42277 18 2.53432 17.9521 2.58992 17.8324L6.46174 11.328H7.85513V17.8324C7.85513 17.9042 7.93871 18 8.04933 18H9.77704C9.9442 18 9.99998 17.9281 9.99998 17.8085V0.240192C9.99998 0.071784 9.88842 0 9.69348 0" fill="#737373"/>
</svg>
